ISO-10303-21;
HEADER;
/* Generated by software containing ST-Developer
 * from STEP Tools, Inc. (www.steptools.com) 
 */
/* OPTION: using custom renumber hook */

FILE_DESCRIPTION(
/* description */ ('STEP AP242 Edition 2',
'CAx-IF Rec.Pracs.---Representation and Presentation of Product Manufa
cturing Information (PMI)---4.0---2014-10-13',
'CAx-IF Rec.Pracs.---3D Tessellated Geometry---0.4---2014-09-14','2;1',
'CAx-IF Rec.Pracs.---User Defined Attributes---1.5---2016-08-15'),
/* implementation_level */ '2;1');

FILE_NAME(
/* name */ 'topplate - Part 1',
/* time_stamp */ '2026-09-19T05:37:32Z',
/* author */ (''),
/* organization */ (''),
/* preprocessor_version */ 'ST-DEVELOPER v20',
/* originating_system */ 'ONSHAPE BY PTC INC, 1.221',
/* authorisation */ '  ');

FILE_SCHEMA (('AP242_MANAGED_MODEL_BASED_3D_ENGINEERING_MIM_LF { 1 0 10303 442 3 1 4 }'));
ENDSEC;

DATA;
#10=SHAPE_REPRESENTATION_RELATIONSHIP('','',#1493,#11);
#11=ADVANCED_BREP_SHAPE_REPRESENTATION('',(#1491),#2367);
#12=CYLINDRICAL_SURFACE('',#1542,0.005);
#13=CYLINDRICAL_SURFACE('',#1545,0.005);
#14=CYLINDRICAL_SURFACE('',#1548,0.005);
#15=CYLINDRICAL_SURFACE('',#1551,0.005);
#16=CYLINDRICAL_SURFACE('',#1554,0.005);
#17=CYLINDRICAL_SURFACE('',#1557,0.005);
#18=CYLINDRICAL_SURFACE('',#1560,0.005);
#19=CYLINDRICAL_SURFACE('',#1563,0.005);
#20=CIRCLE('',#1534,0.005);
#21=CIRCLE('',#1535,0.005);
#22=CIRCLE('',#1536,0.005);
#23=CIRCLE('',#1537,0.005);
#24=CIRCLE('',#1538,0.005);
#25=CIRCLE('',#1539,0.005);
#26=CIRCLE('',#1540,0.005);
#27=CIRCLE('',#1541,0.005);
#28=CIRCLE('',#1543,0.005);
#29=CIRCLE('',#1546,0.005);
#30=CIRCLE('',#1549,0.005);
#31=CIRCLE('',#1552,0.005);
#32=CIRCLE('',#1555,0.005);
#33=CIRCLE('',#1558,0.005);
#34=CIRCLE('',#1561,0.005);
#35=CIRCLE('',#1564,0.005);
#36=ORIENTED_EDGE('',*,*,#444,.T.);
#37=ORIENTED_EDGE('',*,*,#445,.T.);
#38=ORIENTED_EDGE('',*,*,#446,.F.);
#39=ORIENTED_EDGE('',*,*,#447,.F.);
#40=ORIENTED_EDGE('',*,*,#448,.T.);
#41=ORIENTED_EDGE('',*,*,#449,.T.);
#42=ORIENTED_EDGE('',*,*,#450,.F.);
#43=ORIENTED_EDGE('',*,*,#451,.F.);
#44=ORIENTED_EDGE('',*,*,#452,.T.);
#45=ORIENTED_EDGE('',*,*,#453,.T.);
#46=ORIENTED_EDGE('',*,*,#454,.F.);
#47=ORIENTED_EDGE('',*,*,#455,.F.);
#48=ORIENTED_EDGE('',*,*,#456,.T.);
#49=ORIENTED_EDGE('',*,*,#457,.T.);
#50=ORIENTED_EDGE('',*,*,#458,.F.);
#51=ORIENTED_EDGE('',*,*,#459,.F.);
#52=ORIENTED_EDGE('',*,*,#460,.T.);
#53=ORIENTED_EDGE('',*,*,#461,.T.);
#54=ORIENTED_EDGE('',*,*,#462,.F.);
#55=ORIENTED_EDGE('',*,*,#463,.F.);
#56=ORIENTED_EDGE('',*,*,#464,.T.);
#57=ORIENTED_EDGE('',*,*,#465,.F.);
#58=ORIENTED_EDGE('',*,*,#466,.F.);
#59=ORIENTED_EDGE('',*,*,#467,.T.);
#60=ORIENTED_EDGE('',*,*,#468,.T.);
#61=ORIENTED_EDGE('',*,*,#469,.F.);
#62=ORIENTED_EDGE('',*,*,#470,.F.);
#63=ORIENTED_EDGE('',*,*,#471,.T.);
#64=ORIENTED_EDGE('',*,*,#472,.T.);
#65=ORIENTED_EDGE('',*,*,#473,.F.);
#66=ORIENTED_EDGE('',*,*,#474,.F.);
#67=ORIENTED_EDGE('',*,*,#475,.T.);
#68=ORIENTED_EDGE('',*,*,#476,.T.);
#69=ORIENTED_EDGE('',*,*,#477,.F.);
#70=ORIENTED_EDGE('',*,*,#478,.F.);
#71=ORIENTED_EDGE('',*,*,#479,.T.);
#72=ORIENTED_EDGE('',*,*,#480,.F.);
#73=ORIENTED_EDGE('',*,*,#481,.T.);
#74=ORIENTED_EDGE('',*,*,#482,.T.);
#75=ORIENTED_EDGE('',*,*,#483,.F.);
#76=ORIENTED_EDGE('',*,*,#484,.F.);
#77=ORIENTED_EDGE('',*,*,#485,.T.);
#78=ORIENTED_EDGE('',*,*,#486,.T.);
#79=ORIENTED_EDGE('',*,*,#487,.F.);
#80=ORIENTED_EDGE('',*,*,#488,.F.);
#81=ORIENTED_EDGE('',*,*,#489,.T.);
#82=ORIENTED_EDGE('',*,*,#490,.T.);
#83=ORIENTED_EDGE('',*,*,#491,.F.);
#84=ORIENTED_EDGE('',*,*,#492,.F.);
#85=ORIENTED_EDGE('',*,*,#493,.T.);
#86=ORIENTED_EDGE('',*,*,#494,.F.);
#87=ORIENTED_EDGE('',*,*,#476,.F.);
#88=ORIENTED_EDGE('',*,*,#495,.T.);
#89=ORIENTED_EDGE('',*,*,#496,.T.);
#90=ORIENTED_EDGE('',*,*,#497,.T.);
#91=ORIENTED_EDGE('',*,*,#498,.T.);
#92=ORIENTED_EDGE('',*,*,#499,.F.);
#93=ORIENTED_EDGE('',*,*,#500,.T.);
#94=ORIENTED_EDGE('',*,*,#501,.F.);
#95=ORIENTED_EDGE('',*,*,#472,.F.);
#96=ORIENTED_EDGE('',*,*,#502,.T.);
#97=ORIENTED_EDGE('',*,*,#503,.T.);
#98=ORIENTED_EDGE('',*,*,#504,.T.);
#99=ORIENTED_EDGE('',*,*,#505,.T.);
#100=ORIENTED_EDGE('',*,*,#506,.F.);
#101=ORIENTED_EDGE('',*,*,#507,.T.);
#102=ORIENTED_EDGE('',*,*,#508,.F.);
#103=ORIENTED_EDGE('',*,*,#468,.F.);
#104=ORIENTED_EDGE('',*,*,#509,.T.);
#105=ORIENTED_EDGE('',*,*,#510,.T.);
#106=ORIENTED_EDGE('',*,*,#511,.T.);
#107=ORIENTED_EDGE('',*,*,#512,.T.);
#108=ORIENTED_EDGE('',*,*,#513,.F.);
#109=ORIENTED_EDGE('',*,*,#514,.T.);
#110=ORIENTED_EDGE('',*,*,#515,.F.);
#111=ORIENTED_EDGE('',*,*,#464,.F.);
#112=ORIENTED_EDGE('',*,*,#516,.T.);
#113=ORIENTED_EDGE('',*,*,#517,.T.);
#114=ORIENTED_EDGE('',*,*,#518,.T.);
#115=ORIENTED_EDGE('',*,*,#519,.T.);
#116=ORIENTED_EDGE('',*,*,#520,.F.);
#117=ORIENTED_EDGE('',*,*,#521,.T.);
#118=ORIENTED_EDGE('',*,*,#522,.F.);
#119=ORIENTED_EDGE('',*,*,#460,.F.);
#120=ORIENTED_EDGE('',*,*,#523,.T.);
#121=ORIENTED_EDGE('',*,*,#524,.T.);
#122=ORIENTED_EDGE('',*,*,#525,.T.);
#123=ORIENTED_EDGE('',*,*,#526,.T.);
#124=ORIENTED_EDGE('',*,*,#527,.F.);
#125=ORIENTED_EDGE('',*,*,#528,.T.);
#126=ORIENTED_EDGE('',*,*,#529,.F.);
#127=ORIENTED_EDGE('',*,*,#456,.F.);
#128=ORIENTED_EDGE('',*,*,#530,.T.);
#129=ORIENTED_EDGE('',*,*,#531,.T.);
#130=ORIENTED_EDGE('',*,*,#532,.T.);
#131=ORIENTED_EDGE('',*,*,#533,.T.);
#132=ORIENTED_EDGE('',*,*,#534,.F.);
#133=ORIENTED_EDGE('',*,*,#535,.T.);
#134=ORIENTED_EDGE('',*,*,#536,.F.);
#135=ORIENTED_EDGE('',*,*,#452,.F.);
#136=ORIENTED_EDGE('',*,*,#537,.T.);
#137=ORIENTED_EDGE('',*,*,#538,.T.);
#138=ORIENTED_EDGE('',*,*,#539,.T.);
#139=ORIENTED_EDGE('',*,*,#540,.T.);
#140=ORIENTED_EDGE('',*,*,#541,.F.);
#141=ORIENTED_EDGE('',*,*,#542,.T.);
#142=ORIENTED_EDGE('',*,*,#543,.F.);
#143=ORIENTED_EDGE('',*,*,#448,.F.);
#144=ORIENTED_EDGE('',*,*,#544,.T.);
#145=ORIENTED_EDGE('',*,*,#545,.T.);
#146=ORIENTED_EDGE('',*,*,#546,.T.);
#147=ORIENTED_EDGE('',*,*,#547,.T.);
#148=ORIENTED_EDGE('',*,*,#548,.F.);
#149=ORIENTED_EDGE('',*,*,#549,.F.);
#150=ORIENTED_EDGE('',*,*,#480,.T.);
#151=ORIENTED_EDGE('',*,*,#550,.T.);
#152=ORIENTED_EDGE('',*,*,#549,.T.);
#153=ORIENTED_EDGE('',*,*,#551,.T.);
#154=ORIENTED_EDGE('',*,*,#552,.F.);
#155=ORIENTED_EDGE('',*,*,#481,.F.);
#156=ORIENTED_EDGE('',*,*,#552,.T.);
#157=ORIENTED_EDGE('',*,*,#553,.T.);
#158=ORIENTED_EDGE('',*,*,#554,.F.);
#159=ORIENTED_EDGE('',*,*,#482,.F.);
#160=ORIENTED_EDGE('',*,*,#555,.F.);
#161=ORIENTED_EDGE('',*,*,#556,.F.);
#162=ORIENTED_EDGE('',*,*,#477,.T.);
#163=ORIENTED_EDGE('',*,*,#494,.T.);
#164=ORIENTED_EDGE('',*,*,#557,.F.);
#165=ORIENTED_EDGE('',*,*,#558,.F.);
#166=ORIENTED_EDGE('',*,*,#478,.T.);
#167=ORIENTED_EDGE('',*,*,#556,.T.);
#168=ORIENTED_EDGE('',*,*,#559,.F.);
#169=ORIENTED_EDGE('',*,*,#560,.F.);
#170=ORIENTED_EDGE('',*,*,#473,.T.);
#171=ORIENTED_EDGE('',*,*,#501,.T.);
#172=ORIENTED_EDGE('',*,*,#561,.F.);
#173=ORIENTED_EDGE('',*,*,#562,.F.);
#174=ORIENTED_EDGE('',*,*,#474,.T.);
#175=ORIENTED_EDGE('',*,*,#560,.T.);
#176=ORIENTED_EDGE('',*,*,#563,.F.);
#177=ORIENTED_EDGE('',*,*,#564,.F.);
#178=ORIENTED_EDGE('',*,*,#469,.T.);
#179=ORIENTED_EDGE('',*,*,#508,.T.);
#180=ORIENTED_EDGE('',*,*,#565,.F.);
#181=ORIENTED_EDGE('',*,*,#566,.F.);
#182=ORIENTED_EDGE('',*,*,#470,.T.);
#183=ORIENTED_EDGE('',*,*,#564,.T.);
#184=ORIENTED_EDGE('',*,*,#567,.F.);
#185=ORIENTED_EDGE('',*,*,#568,.F.);
#186=ORIENTED_EDGE('',*,*,#465,.T.);
#187=ORIENTED_EDGE('',*,*,#515,.T.);
#188=ORIENTED_EDGE('',*,*,#569,.F.);
#189=ORIENTED_EDGE('',*,*,#570,.F.);
#190=ORIENTED_EDGE('',*,*,#466,.T.);
#191=ORIENTED_EDGE('',*,*,#568,.T.);
#192=ORIENTED_EDGE('',*,*,#522,.T.);
#193=ORIENTED_EDGE('',*,*,#571,.T.);
#194=ORIENTED_EDGE('',*,*,#572,.F.);
#195=ORIENTED_EDGE('',*,*,#461,.F.);
#196=ORIENTED_EDGE('',*,*,#573,.F.);
#197=ORIENTED_EDGE('',*,*,#574,.F.);
#198=ORIENTED_EDGE('',*,*,#462,.T.);
#199=ORIENTED_EDGE('',*,*,#572,.T.);
#200=ORIENTED_EDGE('',*,*,#529,.T.);
#201=ORIENTED_EDGE('',*,*,#575,.T.);
#202=ORIENTED_EDGE('',*,*,#576,.F.);
#203=ORIENTED_EDGE('',*,*,#457,.F.);
#204=ORIENTED_EDGE('',*,*,#577,.F.);
#205=ORIENTED_EDGE('',*,*,#578,.F.);
#206=ORIENTED_EDGE('',*,*,#458,.T.);
#207=ORIENTED_EDGE('',*,*,#576,.T.);
#208=ORIENTED_EDGE('',*,*,#536,.T.);
#209=ORIENTED_EDGE('',*,*,#579,.T.);
#210=ORIENTED_EDGE('',*,*,#580,.F.);
#211=ORIENTED_EDGE('',*,*,#453,.F.);
#212=ORIENTED_EDGE('',*,*,#581,.F.);
#213=ORIENTED_EDGE('',*,*,#582,.F.);
#214=ORIENTED_EDGE('',*,*,#454,.T.);
#215=ORIENTED_EDGE('',*,*,#580,.T.);
#216=ORIENTED_EDGE('',*,*,#543,.T.);
#217=ORIENTED_EDGE('',*,*,#583,.T.);
#218=ORIENTED_EDGE('',*,*,#584,.F.);
#219=ORIENTED_EDGE('',*,*,#449,.F.);
#220=ORIENTED_EDGE('',*,*,#585,.F.);
#221=ORIENTED_EDGE('',*,*,#586,.F.);
#222=ORIENTED_EDGE('',*,*,#450,.T.);
#223=ORIENTED_EDGE('',*,*,#584,.T.);
#224=ORIENTED_EDGE('',*,*,#558,.T.);
#225=ORIENTED_EDGE('',*,*,#587,.T.);
#226=ORIENTED_EDGE('',*,*,#495,.F.);
#227=ORIENTED_EDGE('',*,*,#479,.F.);
#228=ORIENTED_EDGE('',*,*,#562,.T.);
#229=ORIENTED_EDGE('',*,*,#588,.T.);
#230=ORIENTED_EDGE('',*,*,#502,.F.);
#231=ORIENTED_EDGE('',*,*,#475,.F.);
#232=ORIENTED_EDGE('',*,*,#566,.T.);
#233=ORIENTED_EDGE('',*,*,#589,.T.);
#234=ORIENTED_EDGE('',*,*,#509,.F.);
#235=ORIENTED_EDGE('',*,*,#471,.F.);
#236=ORIENTED_EDGE('',*,*,#570,.T.);
#237=ORIENTED_EDGE('',*,*,#590,.T.);
#238=ORIENTED_EDGE('',*,*,#516,.F.);
#239=ORIENTED_EDGE('',*,*,#467,.F.);
#240=ORIENTED_EDGE('',*,*,#591,.F.);
#241=ORIENTED_EDGE('',*,*,#523,.F.);
#242=ORIENTED_EDGE('',*,*,#463,.T.);
#243=ORIENTED_EDGE('',*,*,#574,.T.);
#244=ORIENTED_EDGE('',*,*,#592,.F.);
#245=ORIENTED_EDGE('',*,*,#530,.F.);
#246=ORIENTED_EDGE('',*,*,#459,.T.);
#247=ORIENTED_EDGE('',*,*,#578,.T.);
#248=ORIENTED_EDGE('',*,*,#593,.F.);
#249=ORIENTED_EDGE('',*,*,#537,.F.);
#250=ORIENTED_EDGE('',*,*,#455,.T.);
#251=ORIENTED_EDGE('',*,*,#582,.T.);
#252=ORIENTED_EDGE('',*,*,#594,.F.);
#253=ORIENTED_EDGE('',*,*,#544,.F.);
#254=ORIENTED_EDGE('',*,*,#451,.T.);
#255=ORIENTED_EDGE('',*,*,#586,.T.);
#256=ORIENTED_EDGE('',*,*,#595,.F.);
#257=ORIENTED_EDGE('',*,*,#550,.F.);
#258=ORIENTED_EDGE('',*,*,#483,.T.);
#259=ORIENTED_EDGE('',*,*,#554,.T.);
#260=ORIENTED_EDGE('',*,*,#446,.T.);
#261=ORIENTED_EDGE('',*,*,#596,.T.);
#262=ORIENTED_EDGE('',*,*,#597,.T.);
#263=ORIENTED_EDGE('',*,*,#598,.F.);
#264=ORIENTED_EDGE('',*,*,#599,.T.);
#265=ORIENTED_EDGE('',*,*,#600,.F.);
#266=ORIENTED_EDGE('',*,*,#601,.F.);
#267=ORIENTED_EDGE('',*,*,#602,.T.);
#268=ORIENTED_EDGE('',*,*,#498,.F.);
#269=ORIENTED_EDGE('',*,*,#603,.T.);
#270=ORIENTED_EDGE('',*,*,#505,.F.);
#271=ORIENTED_EDGE('',*,*,#604,.T.);
#272=ORIENTED_EDGE('',*,*,#512,.F.);
#273=ORIENTED_EDGE('',*,*,#605,.T.);
#274=ORIENTED_EDGE('',*,*,#519,.F.);
#275=ORIENTED_EDGE('',*,*,#606,.T.);
#276=ORIENTED_EDGE('',*,*,#526,.F.);
#277=ORIENTED_EDGE('',*,*,#607,.T.);
#278=ORIENTED_EDGE('',*,*,#533,.F.);
#279=ORIENTED_EDGE('',*,*,#608,.T.);
#280=ORIENTED_EDGE('',*,*,#540,.F.);
#281=ORIENTED_EDGE('',*,*,#609,.T.);
#282=ORIENTED_EDGE('',*,*,#547,.F.);
#283=ORIENTED_EDGE('',*,*,#610,.T.);
#284=ORIENTED_EDGE('',*,*,#610,.F.);
#285=ORIENTED_EDGE('',*,*,#546,.F.);
#286=ORIENTED_EDGE('',*,*,#611,.T.);
#287=ORIENTED_EDGE('',*,*,#541,.T.);
#288=ORIENTED_EDGE('',*,*,#542,.F.);
#289=ORIENTED_EDGE('',*,*,#611,.F.);
#290=ORIENTED_EDGE('',*,*,#545,.F.);
#291=ORIENTED_EDGE('',*,*,#594,.T.);
#292=ORIENTED_EDGE('',*,*,#585,.T.);
#293=ORIENTED_EDGE('',*,*,#583,.F.);
#294=ORIENTED_EDGE('',*,*,#609,.F.);
#295=ORIENTED_EDGE('',*,*,#539,.F.);
#296=ORIENTED_EDGE('',*,*,#612,.T.);
#297=ORIENTED_EDGE('',*,*,#534,.T.);
#298=ORIENTED_EDGE('',*,*,#535,.F.);
#299=ORIENTED_EDGE('',*,*,#612,.F.);
#300=ORIENTED_EDGE('',*,*,#538,.F.);
#301=ORIENTED_EDGE('',*,*,#593,.T.);
#302=ORIENTED_EDGE('',*,*,#581,.T.);
#303=ORIENTED_EDGE('',*,*,#579,.F.);
#304=ORIENTED_EDGE('',*,*,#608,.F.);
#305=ORIENTED_EDGE('',*,*,#532,.F.);
#306=ORIENTED_EDGE('',*,*,#613,.T.);
#307=ORIENTED_EDGE('',*,*,#527,.T.);
#308=ORIENTED_EDGE('',*,*,#528,.F.);
#309=ORIENTED_EDGE('',*,*,#613,.F.);
#310=ORIENTED_EDGE('',*,*,#531,.F.);
#311=ORIENTED_EDGE('',*,*,#592,.T.);
#312=ORIENTED_EDGE('',*,*,#577,.T.);
#313=ORIENTED_EDGE('',*,*,#575,.F.);
#314=ORIENTED_EDGE('',*,*,#607,.F.);
#315=ORIENTED_EDGE('',*,*,#525,.F.);
#316=ORIENTED_EDGE('',*,*,#614,.T.);
#317=ORIENTED_EDGE('',*,*,#520,.T.);
#318=ORIENTED_EDGE('',*,*,#521,.F.);
#319=ORIENTED_EDGE('',*,*,#614,.F.);
#320=ORIENTED_EDGE('',*,*,#524,.F.);
#321=ORIENTED_EDGE('',*,*,#591,.T.);
#322=ORIENTED_EDGE('',*,*,#573,.T.);
#323=ORIENTED_EDGE('',*,*,#571,.F.);
#324=ORIENTED_EDGE('',*,*,#606,.F.);
#325=ORIENTED_EDGE('',*,*,#518,.F.);
#326=ORIENTED_EDGE('',*,*,#615,.T.);
#327=ORIENTED_EDGE('',*,*,#513,.T.);
#328=ORIENTED_EDGE('',*,*,#514,.F.);
#329=ORIENTED_EDGE('',*,*,#615,.F.);
#330=ORIENTED_EDGE('',*,*,#517,.F.);
#331=ORIENTED_EDGE('',*,*,#590,.F.);
#332=ORIENTED_EDGE('',*,*,#569,.T.);
#333=ORIENTED_EDGE('',*,*,#567,.T.);
#334=ORIENTED_EDGE('',*,*,#605,.F.);
#335=ORIENTED_EDGE('',*,*,#511,.F.);
#336=ORIENTED_EDGE('',*,*,#616,.T.);
#337=ORIENTED_EDGE('',*,*,#506,.T.);
#338=ORIENTED_EDGE('',*,*,#507,.F.);
#339=ORIENTED_EDGE('',*,*,#616,.F.);
#340=ORIENTED_EDGE('',*,*,#510,.F.);
#341=ORIENTED_EDGE('',*,*,#589,.F.);
#342=ORIENTED_EDGE('',*,*,#565,.T.);
#343=ORIENTED_EDGE('',*,*,#563,.T.);
#344=ORIENTED_EDGE('',*,*,#604,.F.);
#345=ORIENTED_EDGE('',*,*,#504,.F.);
#346=ORIENTED_EDGE('',*,*,#617,.T.);
#347=ORIENTED_EDGE('',*,*,#499,.T.);
#348=ORIENTED_EDGE('',*,*,#500,.F.);
#349=ORIENTED_EDGE('',*,*,#617,.F.);
#350=ORIENTED_EDGE('',*,*,#503,.F.);
#351=ORIENTED_EDGE('',*,*,#588,.F.);
#352=ORIENTED_EDGE('',*,*,#561,.T.);
#353=ORIENTED_EDGE('',*,*,#559,.T.);
#354=ORIENTED_EDGE('',*,*,#603,.F.);
#355=ORIENTED_EDGE('',*,*,#497,.F.);
#356=ORIENTED_EDGE('',*,*,#618,.T.);
#357=ORIENTED_EDGE('',*,*,#492,.T.);
#358=ORIENTED_EDGE('',*,*,#493,.F.);
#359=ORIENTED_EDGE('',*,*,#618,.F.);
#360=ORIENTED_EDGE('',*,*,#496,.F.);
#361=ORIENTED_EDGE('',*,*,#587,.F.);
#362=ORIENTED_EDGE('',*,*,#557,.T.);
#363=ORIENTED_EDGE('',*,*,#555,.T.);
#364=ORIENTED_EDGE('',*,*,#485,.F.);
#365=ORIENTED_EDGE('',*,*,#619,.F.);
#366=ORIENTED_EDGE('',*,*,#620,.T.);
#367=ORIENTED_EDGE('',*,*,#621,.T.);
#368=ORIENTED_EDGE('',*,*,#484,.T.);
#369=ORIENTED_EDGE('',*,*,#622,.F.);
#370=ORIENTED_EDGE('',*,*,#623,.F.);
#371=ORIENTED_EDGE('',*,*,#619,.T.);
#372=ORIENTED_EDGE('',*,*,#487,.T.);
#373=ORIENTED_EDGE('',*,*,#624,.F.);
#374=ORIENTED_EDGE('',*,*,#625,.F.);
#375=ORIENTED_EDGE('',*,*,#622,.T.);
#376=ORIENTED_EDGE('',*,*,#486,.F.);
#377=ORIENTED_EDGE('',*,*,#621,.F.);
#378=ORIENTED_EDGE('',*,*,#626,.T.);
#379=ORIENTED_EDGE('',*,*,#624,.T.);
#380=ORIENTED_EDGE('',*,*,#620,.F.);
#381=ORIENTED_EDGE('',*,*,#623,.T.);
#382=ORIENTED_EDGE('',*,*,#625,.T.);
#383=ORIENTED_EDGE('',*,*,#626,.F.);
#384=ORIENTED_EDGE('',*,*,#489,.F.);
#385=ORIENTED_EDGE('',*,*,#627,.F.);
#386=ORIENTED_EDGE('',*,*,#628,.T.);
#387=ORIENTED_EDGE('',*,*,#629,.T.);
#388=ORIENTED_EDGE('',*,*,#488,.T.);
#389=ORIENTED_EDGE('',*,*,#630,.F.);
#390=ORIENTED_EDGE('',*,*,#631,.F.);
#391=ORIENTED_EDGE('',*,*,#627,.T.);
#392=ORIENTED_EDGE('',*,*,#491,.T.);
#393=ORIENTED_EDGE('',*,*,#632,.F.);
#394=ORIENTED_EDGE('',*,*,#633,.F.);
#395=ORIENTED_EDGE('',*,*,#630,.T.);
#396=ORIENTED_EDGE('',*,*,#490,.F.);
#397=ORIENTED_EDGE('',*,*,#629,.F.);
#398=ORIENTED_EDGE('',*,*,#634,.T.);
#399=ORIENTED_EDGE('',*,*,#632,.T.);
#400=ORIENTED_EDGE('',*,*,#628,.F.);
#401=ORIENTED_EDGE('',*,*,#631,.T.);
#402=ORIENTED_EDGE('',*,*,#633,.T.);
#403=ORIENTED_EDGE('',*,*,#634,.F.);
#404=ORIENTED_EDGE('',*,*,#601,.T.);
#405=ORIENTED_EDGE('',*,*,#635,.F.);
#406=ORIENTED_EDGE('',*,*,#636,.F.);
#407=ORIENTED_EDGE('',*,*,#637,.T.);
#408=ORIENTED_EDGE('',*,*,#600,.T.);
#409=ORIENTED_EDGE('',*,*,#638,.F.);
#410=ORIENTED_EDGE('',*,*,#639,.F.);
#411=ORIENTED_EDGE('',*,*,#635,.T.);
#412=ORIENTED_EDGE('',*,*,#640,.F.);
#413=ORIENTED_EDGE('',*,*,#641,.T.);
#414=ORIENTED_EDGE('',*,*,#638,.T.);
#415=ORIENTED_EDGE('',*,*,#599,.F.);
#416=ORIENTED_EDGE('',*,*,#602,.F.);
#417=ORIENTED_EDGE('',*,*,#637,.F.);
#418=ORIENTED_EDGE('',*,*,#642,.T.);
#419=ORIENTED_EDGE('',*,*,#447,.T.);
#420=ORIENTED_EDGE('',*,*,#551,.F.);
#421=ORIENTED_EDGE('',*,*,#548,.T.);
#422=ORIENTED_EDGE('',*,*,#595,.T.);
#423=ORIENTED_EDGE('',*,*,#553,.F.);
#424=ORIENTED_EDGE('',*,*,#636,.T.);
#425=ORIENTED_EDGE('',*,*,#639,.T.);
#426=ORIENTED_EDGE('',*,*,#641,.F.);
#427=ORIENTED_EDGE('',*,*,#643,.T.);
#428=ORIENTED_EDGE('',*,*,#644,.F.);
#429=ORIENTED_EDGE('',*,*,#645,.F.);
#430=ORIENTED_EDGE('',*,*,#444,.F.);
#431=ORIENTED_EDGE('',*,*,#642,.F.);
#432=ORIENTED_EDGE('',*,*,#596,.F.);
#433=ORIENTED_EDGE('',*,*,#445,.F.);
#434=ORIENTED_EDGE('',*,*,#645,.T.);
#435=ORIENTED_EDGE('',*,*,#646,.T.);
#436=ORIENTED_EDGE('',*,*,#598,.T.);
#437=ORIENTED_EDGE('',*,*,#647,.F.);
#438=ORIENTED_EDGE('',*,*,#643,.F.);
#439=ORIENTED_EDGE('',*,*,#640,.T.);
#440=ORIENTED_EDGE('',*,*,#597,.F.);
#441=ORIENTED_EDGE('',*,*,#646,.F.);
#442=ORIENTED_EDGE('',*,*,#644,.T.);
#443=ORIENTED_EDGE('',*,*,#647,.T.);
#444=EDGE_CURVE('',#648,#649,#784,.T.);
#445=EDGE_CURVE('',#649,#650,#785,.T.);
#446=EDGE_CURVE('',#651,#650,#786,.T.);
#447=EDGE_CURVE('',#648,#651,#787,.T.);
#448=EDGE_CURVE('',#652,#653,#788,.T.);
#449=EDGE_CURVE('',#653,#654,#789,.T.);
#450=EDGE_CURVE('',#655,#654,#790,.T.);
#451=EDGE_CURVE('',#652,#655,#791,.T.);
#452=EDGE_CURVE('',#656,#657,#792,.T.);
#453=EDGE_CURVE('',#657,#658,#793,.T.);
#454=EDGE_CURVE('',#659,#658,#794,.T.);
#455=EDGE_CURVE('',#656,#659,#795,.T.);
#456=EDGE_CURVE('',#660,#661,#796,.T.);
#457=EDGE_CURVE('',#661,#662,#797,.T.);
#458=EDGE_CURVE('',#663,#662,#798,.T.);
#459=EDGE_CURVE('',#660,#663,#799,.T.);
#460=EDGE_CURVE('',#664,#665,#800,.T.);
#461=EDGE_CURVE('',#665,#666,#801,.T.);
#462=EDGE_CURVE('',#667,#666,#802,.T.);
#463=EDGE_CURVE('',#664,#667,#803,.T.);
#464=EDGE_CURVE('',#668,#669,#804,.T.);
#465=EDGE_CURVE('',#670,#669,#805,.T.);
#466=EDGE_CURVE('',#671,#670,#806,.T.);
#467=EDGE_CURVE('',#671,#668,#807,.T.);
#468=EDGE_CURVE('',#672,#673,#808,.T.);
#469=EDGE_CURVE('',#674,#673,#809,.T.);
#470=EDGE_CURVE('',#675,#674,#810,.T.);
#471=EDGE_CURVE('',#675,#672,#811,.T.);
#472=EDGE_CURVE('',#676,#677,#812,.T.);
#473=EDGE_CURVE('',#678,#677,#813,.T.);
#474=EDGE_CURVE('',#679,#678,#814,.T.);
#475=EDGE_CURVE('',#679,#676,#815,.T.);
#476=EDGE_CURVE('',#680,#681,#816,.T.);
#477=EDGE_CURVE('',#682,#681,#817,.T.);
#478=EDGE_CURVE('',#683,#682,#818,.T.);
#479=EDGE_CURVE('',#683,#680,#819,.T.);
#480=EDGE_CURVE('',#684,#685,#820,.T.);
#481=EDGE_CURVE('',#684,#686,#821,.T.);
#482=EDGE_CURVE('',#686,#687,#822,.T.);
#483=EDGE_CURVE('',#685,#687,#823,.T.);
#484=EDGE_CURVE('',#688,#689,#824,.T.);
#485=EDGE_CURVE('',#688,#690,#825,.T.);
#486=EDGE_CURVE('',#690,#691,#826,.T.);
#487=EDGE_CURVE('',#689,#691,#827,.T.);
#488=EDGE_CURVE('',#692,#693,#828,.T.);
#489=EDGE_CURVE('',#692,#694,#829,.T.);
#490=EDGE_CURVE('',#694,#695,#830,.T.);
#491=EDGE_CURVE('',#693,#695,#831,.T.);
#492=EDGE_CURVE('',#696,#697,#832,.T.);
#493=EDGE_CURVE('',#696,#698,#833,.T.);
#494=EDGE_CURVE('',#681,#698,#834,.T.);
#495=EDGE_CURVE('',#680,#699,#835,.T.);
#496=EDGE_CURVE('',#699,#700,#836,.T.);
#497=EDGE_CURVE('',#700,#701,#837,.T.);
#498=EDGE_CURVE('',#701,#697,#838,.T.);
#499=EDGE_CURVE('',#702,#703,#839,.T.);
#500=EDGE_CURVE('',#702,#704,#840,.T.);
#501=EDGE_CURVE('',#677,#704,#841,.T.);
#502=EDGE_CURVE('',#676,#705,#842,.T.);
#503=EDGE_CURVE('',#705,#706,#843,.T.);
#504=EDGE_CURVE('',#706,#707,#844,.T.);
#505=EDGE_CURVE('',#707,#703,#845,.T.);
#506=EDGE_CURVE('',#708,#709,#846,.T.);
#507=EDGE_CURVE('',#708,#710,#847,.T.);
#508=EDGE_CURVE('',#673,#710,#848,.T.);
#509=EDGE_CURVE('',#672,#711,#849,.T.);
#510=EDGE_CURVE('',#711,#712,#850,.T.);
#511=EDGE_CURVE('',#712,#713,#851,.T.);
#512=EDGE_CURVE('',#713,#709,#852,.T.);
#513=EDGE_CURVE('',#714,#715,#853,.T.);
#514=EDGE_CURVE('',#714,#716,#854,.T.);
#515=EDGE_CURVE('',#669,#716,#855,.T.);
#516=EDGE_CURVE('',#668,#717,#856,.T.);
#517=EDGE_CURVE('',#717,#718,#857,.T.);
#518=EDGE_CURVE('',#718,#719,#858,.T.);
#519=EDGE_CURVE('',#719,#715,#859,.T.);
#520=EDGE_CURVE('',#720,#721,#860,.T.);
#521=EDGE_CURVE('',#720,#722,#861,.T.);
#522=EDGE_CURVE('',#665,#722,#862,.T.);
#523=EDGE_CURVE('',#664,#723,#863,.T.);
#524=EDGE_CURVE('',#723,#724,#864,.T.);
#525=EDGE_CURVE('',#724,#725,#865,.T.);
#526=EDGE_CURVE('',#725,#721,#866,.T.);
#527=EDGE_CURVE('',#726,#727,#867,.T.);
#528=EDGE_CURVE('',#726,#728,#868,.T.);
#529=EDGE_CURVE('',#661,#728,#869,.T.);
#530=EDGE_CURVE('',#660,#729,#870,.T.);
#531=EDGE_CURVE('',#729,#730,#871,.T.);
#532=EDGE_CURVE('',#730,#731,#872,.T.);
#533=EDGE_CURVE('',#731,#727,#873,.T.);
#534=EDGE_CURVE('',#732,#733,#874,.T.);
#535=EDGE_CURVE('',#732,#734,#875,.T.);
#536=EDGE_CURVE('',#657,#734,#876,.T.);
#537=EDGE_CURVE('',#656,#735,#877,.T.);
#538=EDGE_CURVE('',#735,#736,#878,.T.);
#539=EDGE_CURVE('',#736,#737,#879,.T.);
#540=EDGE_CURVE('',#737,#733,#880,.T.);
#541=EDGE_CURVE('',#738,#739,#881,.T.);
#542=EDGE_CURVE('',#738,#740,#882,.T.);
#543=EDGE_CURVE('',#653,#740,#883,.T.);
#544=EDGE_CURVE('',#652,#741,#884,.T.);
#545=EDGE_CURVE('',#741,#742,#885,.T.);
#546=EDGE_CURVE('',#742,#743,#886,.T.);
#547=EDGE_CURVE('',#743,#739,#887,.T.);
#548=EDGE_CURVE('',#744,#745,#888,.T.);
#549=EDGE_CURVE('',#684,#744,#889,.T.);
#550=EDGE_CURVE('',#685,#745,#890,.T.);
#551=EDGE_CURVE('',#744,#746,#891,.T.);
#552=EDGE_CURVE('',#686,#746,#892,.T.);
#553=EDGE_CURVE('',#746,#747,#893,.T.);
#554=EDGE_CURVE('',#687,#747,#894,.T.);
#555=EDGE_CURVE('',#748,#698,#895,.T.);
#556=EDGE_CURVE('',#682,#748,#896,.T.);
#557=EDGE_CURVE('',#749,#748,#897,.T.);
#558=EDGE_CURVE('',#683,#749,#898,.T.);
#559=EDGE_CURVE('',#750,#704,#899,.T.);
#560=EDGE_CURVE('',#678,#750,#900,.T.);
#561=EDGE_CURVE('',#751,#750,#901,.T.);
#562=EDGE_CURVE('',#679,#751,#902,.T.);
#563=EDGE_CURVE('',#752,#710,#903,.T.);
#564=EDGE_CURVE('',#674,#752,#904,.T.);
#565=EDGE_CURVE('',#753,#752,#905,.T.);
#566=EDGE_CURVE('',#675,#753,#906,.T.);
#567=EDGE_CURVE('',#754,#716,#907,.T.);
#568=EDGE_CURVE('',#670,#754,#908,.T.);
#569=EDGE_CURVE('',#755,#754,#909,.T.);
#570=EDGE_CURVE('',#671,#755,#910,.T.);
#571=EDGE_CURVE('',#722,#756,#911,.T.);
#572=EDGE_CURVE('',#666,#756,#912,.T.);
#573=EDGE_CURVE('',#757,#756,#913,.T.);
#574=EDGE_CURVE('',#667,#757,#914,.T.);
#575=EDGE_CURVE('',#728,#758,#915,.T.);
#576=EDGE_CURVE('',#662,#758,#916,.T.);
#577=EDGE_CURVE('',#759,#758,#917,.T.);
#578=EDGE_CURVE('',#663,#759,#918,.T.);
#579=EDGE_CURVE('',#734,#760,#919,.T.);
#580=EDGE_CURVE('',#658,#760,#920,.T.);
#581=EDGE_CURVE('',#761,#760,#921,.T.);
#582=EDGE_CURVE('',#659,#761,#922,.T.);
#583=EDGE_CURVE('',#740,#762,#923,.T.);
#584=EDGE_CURVE('',#654,#762,#924,.T.);
#585=EDGE_CURVE('',#763,#762,#925,.T.);
#586=EDGE_CURVE('',#655,#763,#926,.T.);
#587=EDGE_CURVE('',#749,#699,#927,.T.);
#588=EDGE_CURVE('',#751,#705,#928,.T.);
#589=EDGE_CURVE('',#753,#711,#929,.T.);
#590=EDGE_CURVE('',#755,#717,#930,.T.);
#591=EDGE_CURVE('',#723,#757,#931,.T.);
#592=EDGE_CURVE('',#729,#759,#932,.T.);
#593=EDGE_CURVE('',#735,#761,#933,.T.);
#594=EDGE_CURVE('',#741,#763,#934,.T.);
#595=EDGE_CURVE('',#745,#747,#935,.T.);
#596=EDGE_CURVE('',#650,#764,#936,.T.);
#597=EDGE_CURVE('',#764,#765,#937,.T.);
#598=EDGE_CURVE('',#766,#765,#938,.T.);
#599=EDGE_CURVE('',#766,#767,#939,.T.);
#600=EDGE_CURVE('',#768,#767,#940,.T.);
#601=EDGE_CURVE('',#769,#768,#941,.T.);
#602=EDGE_CURVE('',#769,#651,#942,.T.);
#603=EDGE_CURVE('',#701,#697,#20,.T.);
#604=EDGE_CURVE('',#707,#703,#21,.T.);
#605=EDGE_CURVE('',#713,#709,#22,.T.);
#606=EDGE_CURVE('',#719,#715,#23,.T.);
#607=EDGE_CURVE('',#725,#721,#24,.T.);
#608=EDGE_CURVE('',#731,#727,#25,.T.);
#609=EDGE_CURVE('',#737,#733,#26,.T.);
#610=EDGE_CURVE('',#743,#739,#27,.T.);
#611=EDGE_CURVE('',#742,#738,#28,.T.);
#612=EDGE_CURVE('',#736,#732,#29,.T.);
#613=EDGE_CURVE('',#730,#726,#30,.T.);
#614=EDGE_CURVE('',#724,#720,#31,.T.);
#615=EDGE_CURVE('',#718,#714,#32,.T.);
#616=EDGE_CURVE('',#712,#708,#33,.T.);
#617=EDGE_CURVE('',#706,#702,#34,.T.);
#618=EDGE_CURVE('',#700,#696,#35,.T.);
#619=EDGE_CURVE('',#770,#688,#943,.T.);
#620=EDGE_CURVE('',#770,#771,#944,.T.);
#621=EDGE_CURVE('',#771,#690,#945,.T.);
#622=EDGE_CURVE('',#772,#689,#946,.T.);
#623=EDGE_CURVE('',#770,#772,#947,.T.);
#624=EDGE_CURVE('',#773,#691,#948,.T.);
#625=EDGE_CURVE('',#772,#773,#949,.T.);
#626=EDGE_CURVE('',#771,#773,#950,.T.);
#627=EDGE_CURVE('',#774,#692,#951,.T.);
#628=EDGE_CURVE('',#774,#775,#952,.T.);
#629=EDGE_CURVE('',#775,#694,#953,.T.);
#630=EDGE_CURVE('',#776,#693,#954,.T.);
#631=EDGE_CURVE('',#774,#776,#955,.T.);
#632=EDGE_CURVE('',#777,#695,#956,.T.);
#633=EDGE_CURVE('',#776,#777,#957,.T.);
#634=EDGE_CURVE('',#775,#777,#958,.T.);
#635=EDGE_CURVE('',#778,#768,#959,.T.);
#636=EDGE_CURVE('',#779,#778,#960,.T.);
#637=EDGE_CURVE('',#779,#769,#961,.T.);
#638=EDGE_CURVE('',#780,#767,#962,.T.);
#639=EDGE_CURVE('',#778,#780,#963,.T.);
#640=EDGE_CURVE('',#781,#766,#964,.T.);
#641=EDGE_CURVE('',#781,#780,#965,.T.);
#642=EDGE_CURVE('',#779,#648,#966,.T.);
#643=EDGE_CURVE('',#781,#782,#967,.T.);
#644=EDGE_CURVE('',#783,#782,#968,.T.);
#645=EDGE_CURVE('',#649,#783,#969,.T.);
#646=EDGE_CURVE('',#783,#764,#970,.T.);
#647=EDGE_CURVE('',#782,#765,#971,.T.);
#648=VERTEX_POINT('',#1955);
#649=VERTEX_POINT('',#1956);
#650=VERTEX_POINT('',#1958);
#651=VERTEX_POINT('',#1960);
#652=VERTEX_POINT('',#1964);
#653=VERTEX_POINT('',#1965);
#654=VERTEX_POINT('',#1967);
#655=VERTEX_POINT('',#1969);
#656=VERTEX_POINT('',#1972);
#657=VERTEX_POINT('',#1973);
#658=VERTEX_POINT('',#1975);
#659=VERTEX_POINT('',#1977);
#660=VERTEX_POINT('',#1980);
#661=VERTEX_POINT('',#1981);
#662=VERTEX_POINT('',#1983);
#663=VERTEX_POINT('',#1985);
#664=VERTEX_POINT('',#1988);
#665=VERTEX_POINT('',#1989);
#666=VERTEX_POINT('',#1991);
#667=VERTEX_POINT('',#1993);
#668=VERTEX_POINT('',#1996);
#669=VERTEX_POINT('',#1997);
#670=VERTEX_POINT('',#1999);
#671=VERTEX_POINT('',#2001);
#672=VERTEX_POINT('',#2004);
#673=VERTEX_POINT('',#2005);
#674=VERTEX_POINT('',#2007);
#675=VERTEX_POINT('',#2009);
#676=VERTEX_POINT('',#2012);
#677=VERTEX_POINT('',#2013);
#678=VERTEX_POINT('',#2015);
#679=VERTEX_POINT('',#2017);
#680=VERTEX_POINT('',#2020);
#681=VERTEX_POINT('',#2021);
#682=VERTEX_POINT('',#2023);
#683=VERTEX_POINT('',#2025);
#684=VERTEX_POINT('',#2028);
#685=VERTEX_POINT('',#2029);
#686=VERTEX_POINT('',#2031);
#687=VERTEX_POINT('',#2033);
#688=VERTEX_POINT('',#2036);
#689=VERTEX_POINT('',#2037);
#690=VERTEX_POINT('',#2039);
#691=VERTEX_POINT('',#2041);
#692=VERTEX_POINT('',#2044);
#693=VERTEX_POINT('',#2045);
#694=VERTEX_POINT('',#2047);
#695=VERTEX_POINT('',#2049);
#696=VERTEX_POINT('',#2053);
#697=VERTEX_POINT('',#2054);
#698=VERTEX_POINT('',#2056);
#699=VERTEX_POINT('',#2059);
#700=VERTEX_POINT('',#2061);
#701=VERTEX_POINT('',#2063);
#702=VERTEX_POINT('',#2067);
#703=VERTEX_POINT('',#2068);
#704=VERTEX_POINT('',#2070);
#705=VERTEX_POINT('',#2073);
#706=VERTEX_POINT('',#2075);
#707=VERTEX_POINT('',#2077);
#708=VERTEX_POINT('',#2081);
#709=VERTEX_POINT('',#2082);
#710=VERTEX_POINT('',#2084);
#711=VERTEX_POINT('',#2087);
#712=VERTEX_POINT('',#2089);
#713=VERTEX_POINT('',#2091);
#714=VERTEX_POINT('',#2095);
#715=VERTEX_POINT('',#2096);
#716=VERTEX_POINT('',#2098);
#717=VERTEX_POINT('',#2101);
#718=VERTEX_POINT('',#2103);
#719=VERTEX_POINT('',#2105);
#720=VERTEX_POINT('',#2109);
#721=VERTEX_POINT('',#2110);
#722=VERTEX_POINT('',#2112);
#723=VERTEX_POINT('',#2115);
#724=VERTEX_POINT('',#2117);
#725=VERTEX_POINT('',#2119);
#726=VERTEX_POINT('',#2123);
#727=VERTEX_POINT('',#2124);
#728=VERTEX_POINT('',#2126);
#729=VERTEX_POINT('',#2129);
#730=VERTEX_POINT('',#2131);
#731=VERTEX_POINT('',#2133);
#732=VERTEX_POINT('',#2137);
#733=VERTEX_POINT('',#2138);
#734=VERTEX_POINT('',#2140);
#735=VERTEX_POINT('',#2143);
#736=VERTEX_POINT('',#2145);
#737=VERTEX_POINT('',#2147);
#738=VERTEX_POINT('',#2151);
#739=VERTEX_POINT('',#2152);
#740=VERTEX_POINT('',#2154);
#741=VERTEX_POINT('',#2157);
#742=VERTEX_POINT('',#2159);
#743=VERTEX_POINT('',#2161);
#744=VERTEX_POINT('',#2165);
#745=VERTEX_POINT('',#2166);
#746=VERTEX_POINT('',#2171);
#747=VERTEX_POINT('',#2175);
#748=VERTEX_POINT('',#2179);
#749=VERTEX_POINT('',#2183);
#750=VERTEX_POINT('',#2187);
#751=VERTEX_POINT('',#2191);
#752=VERTEX_POINT('',#2195);
#753=VERTEX_POINT('',#2199);
#754=VERTEX_POINT('',#2203);
#755=VERTEX_POINT('',#2207);
#756=VERTEX_POINT('',#2211);
#757=VERTEX_POINT('',#2215);
#758=VERTEX_POINT('',#2219);
#759=VERTEX_POINT('',#2223);
#760=VERTEX_POINT('',#2227);
#761=VERTEX_POINT('',#2231);
#762=VERTEX_POINT('',#2235);
#763=VERTEX_POINT('',#2239);
#764=VERTEX_POINT('',#2261);
#765=VERTEX_POINT('',#2263);
#766=VERTEX_POINT('',#2265);
#767=VERTEX_POINT('',#2267);
#768=VERTEX_POINT('',#2269);
#769=VERTEX_POINT('',#2271);
#770=VERTEX_POINT('',#2307);
#771=VERTEX_POINT('',#2309);
#772=VERTEX_POINT('',#2313);
#773=VERTEX_POINT('',#2317);
#774=VERTEX_POINT('',#2324);
#775=VERTEX_POINT('',#2326);
#776=VERTEX_POINT('',#2330);
#777=VERTEX_POINT('',#2334);
#778=VERTEX_POINT('',#2341);
#779=VERTEX_POINT('',#2343);
#780=VERTEX_POINT('',#2347);
#781=VERTEX_POINT('',#2351);
#782=VERTEX_POINT('',#2357);
#783=VERTEX_POINT('',#2359);
#784=LINE('',#1954,#972);
#785=LINE('',#1957,#973);
#786=LINE('',#1959,#974);
#787=LINE('',#1961,#975);
#788=LINE('',#1963,#976);
#789=LINE('',#1966,#977);
#790=LINE('',#1968,#978);
#791=LINE('',#1970,#979);
#792=LINE('',#1971,#980);
#793=LINE('',#1974,#981);
#794=LINE('',#1976,#982);
#795=LINE('',#1978,#983);
#796=LINE('',#1979,#984);
#797=LINE('',#1982,#985);
#798=LINE('',#1984,#986);
#799=LINE('',#1986,#987);
#800=LINE('',#1987,#988);
#801=LINE('',#1990,#989);
#802=LINE('',#1992,#990);
#803=LINE('',#1994,#991);
#804=LINE('',#1995,#992);
#805=LINE('',#1998,#993);
#806=LINE('',#2000,#994);
#807=LINE('',#2002,#995);
#808=LINE('',#2003,#996);
#809=LINE('',#2006,#997);
#810=LINE('',#2008,#998);
#811=LINE('',#2010,#999);
#812=LINE('',#2011,#1000);
#813=LINE('',#2014,#1001);
#814=LINE('',#2016,#1002);
#815=LINE('',#2018,#1003);
#816=LINE('',#2019,#1004);
#817=LINE('',#2022,#1005);
#818=LINE('',#2024,#1006);
#819=LINE('',#2026,#1007);
#820=LINE('',#2027,#1008);
#821=LINE('',#2030,#1009);
#822=LINE('',#2032,#1010);
#823=LINE('',#2034,#1011);
#824=LINE('',#2035,#1012);
#825=LINE('',#2038,#1013);
#826=LINE('',#2040,#1014);
#827=LINE('',#2042,#1015);
#828=LINE('',#2043,#1016);
#829=LINE('',#2046,#1017);
#830=LINE('',#2048,#1018);
#831=LINE('',#2050,#1019);
#832=LINE('',#2052,#1020);
#833=LINE('',#2055,#1021);
#834=LINE('',#2057,#1022);
#835=LINE('',#2058,#1023);
#836=LINE('',#2060,#1024);
#837=LINE('',#2062,#1025);
#838=LINE('',#2064,#1026);
#839=LINE('',#2066,#1027);
#840=LINE('',#2069,#1028);
#841=LINE('',#2071,#1029);
#842=LINE('',#2072,#1030);
#843=LINE('',#2074,#1031);
#844=LINE('',#2076,#1032);
#845=LINE('',#2078,#1033);
#846=LINE('',#2080,#1034);
#847=LINE('',#2083,#1035);
#848=LINE('',#2085,#1036);
#849=LINE('',#2086,#1037);
#850=LINE('',#2088,#1038);
#851=LINE('',#2090,#1039);
#852=LINE('',#2092,#1040);
#853=LINE('',#2094,#1041);
#854=LINE('',#2097,#1042);
#855=LINE('',#2099,#1043);
#856=LINE('',#2100,#1044);
#857=LINE('',#2102,#1045);
#858=LINE('',#2104,#1046);
#859=LINE('',#2106,#1047);
#860=LINE('',#2108,#1048);
#861=LINE('',#2111,#1049);
#862=LINE('',#2113,#1050);
#863=LINE('',#2114,#1051);
#864=LINE('',#2116,#1052);
#865=LINE('',#2118,#1053);
#866=LINE('',#2120,#1054);
#867=LINE('',#2122,#1055);
#868=LINE('',#2125,#1056);
#869=LINE('',#2127,#1057);
#870=LINE('',#2128,#1058);
#871=LINE('',#2130,#1059);
#872=LINE('',#2132,#1060);
#873=LINE('',#2134,#1061);
#874=LINE('',#2136,#1062);
#875=LINE('',#2139,#1063);
#876=LINE('',#2141,#1064);
#877=LINE('',#2142,#1065);
#878=LINE('',#2144,#1066);
#879=LINE('',#2146,#1067);
#880=LINE('',#2148,#1068);
#881=LINE('',#2150,#1069);
#882=LINE('',#2153,#1070);
#883=LINE('',#2155,#1071);
#884=LINE('',#2156,#1072);
#885=LINE('',#2158,#1073);
#886=LINE('',#2160,#1074);
#887=LINE('',#2162,#1075);
#888=LINE('',#2164,#1076);
#889=LINE('',#2167,#1077);
#890=LINE('',#2168,#1078);
#891=LINE('',#2170,#1079);
#892=LINE('',#2172,#1080);
#893=LINE('',#2174,#1081);
#894=LINE('',#2176,#1082);
#895=LINE('',#2178,#1083);
#896=LINE('',#2180,#1084);
#897=LINE('',#2182,#1085);
#898=LINE('',#2184,#1086);
#899=LINE('',#2186,#1087);
#900=LINE('',#2188,#1088);
#901=LINE('',#2190,#1089);
#902=LINE('',#2192,#1090);
#903=LINE('',#2194,#1091);
#904=LINE('',#2196,#1092);
#905=LINE('',#2198,#1093);
#906=LINE('',#2200,#1094);
#907=LINE('',#2202,#1095);
#908=LINE('',#2204,#1096);
#909=LINE('',#2206,#1097);
#910=LINE('',#2208,#1098);
#911=LINE('',#2210,#1099);
#912=LINE('',#2212,#1100);
#913=LINE('',#2214,#1101);
#914=LINE('',#2216,#1102);
#915=LINE('',#2218,#1103);
#916=LINE('',#2220,#1104);
#917=LINE('',#2222,#1105);
#918=LINE('',#2224,#1106);
#919=LINE('',#2226,#1107);
#920=LINE('',#2228,#1108);
#921=LINE('',#2230,#1109);
#922=LINE('',#2232,#1110);
#923=LINE('',#2234,#1111);
#924=LINE('',#2236,#1112);
#925=LINE('',#2238,#1113);
#926=LINE('',#2240,#1114);
#927=LINE('',#2242,#1115);
#928=LINE('',#2244,#1116);
#929=LINE('',#2246,#1117);
#930=LINE('',#2248,#1118);
#931=LINE('',#2250,#1119);
#932=LINE('',#2252,#1120);
#933=LINE('',#2254,#1121);
#934=LINE('',#2256,#1122);
#935=LINE('',#2258,#1123);
#936=LINE('',#2260,#1124);
#937=LINE('',#2262,#1125);
#938=LINE('',#2264,#1126);
#939=LINE('',#2266,#1127);
#940=LINE('',#2268,#1128);
#941=LINE('',#2270,#1129);
#942=LINE('',#2272,#1130);
#943=LINE('',#2306,#1131);
#944=LINE('',#2308,#1132);
#945=LINE('',#2310,#1133);
#946=LINE('',#2312,#1134);
#947=LINE('',#2314,#1135);
#948=LINE('',#2316,#1136);
#949=LINE('',#2318,#1137);
#950=LINE('',#2320,#1138);
#951=LINE('',#2323,#1139);
#952=LINE('',#2325,#1140);
#953=LINE('',#2327,#1141);
#954=LINE('',#2329,#1142);
#955=LINE('',#2331,#1143);
#956=LINE('',#2333,#1144);
#957=LINE('',#2335,#1145);
#958=LINE('',#2337,#1146);
#959=LINE('',#2340,#1147);
#960=LINE('',#2342,#1148);
#961=LINE('',#2344,#1149);
#962=LINE('',#2346,#1150);
#963=LINE('',#2348,#1151);
#964=LINE('',#2350,#1152);
#965=LINE('',#2352,#1153);
#966=LINE('',#2354,#1154);
#967=LINE('',#2356,#1155);
#968=LINE('',#2358,#1156);
#969=LINE('',#2360,#1157);
#970=LINE('',#2362,#1158);
#971=LINE('',#2364,#1159);
#972=VECTOR('',#1588,1.);
#973=VECTOR('',#1589,1.);
#974=VECTOR('',#1590,1.);
#975=VECTOR('',#1591,1.);
#976=VECTOR('',#1594,1.);
#977=VECTOR('',#1595,1.);
#978=VECTOR('',#1596,1.);
#979=VECTOR('',#1597,1.);
#980=VECTOR('',#1598,1.);
#981=VECTOR('',#1599,1.);
#982=VECTOR('',#1600,1.);
#983=VECTOR('',#1601,1.);
#984=VECTOR('',#1602,1.);
#985=VECTOR('',#1603,1.);
#986=VECTOR('',#1604,1.);
#987=VECTOR('',#1605,1.);
#988=VECTOR('',#1606,1.);
#989=VECTOR('',#1607,1.);
#990=VECTOR('',#1608,1.);
#991=VECTOR('',#1609,1.);
#992=VECTOR('',#1610,1.);
#993=VECTOR('',#1611,1.);
#994=VECTOR('',#1612,1.);
#995=VECTOR('',#1613,1.);
#996=VECTOR('',#1614,1.);
#997=VECTOR('',#1615,1.);
#998=VECTOR('',#1616,1.);
#999=VECTOR('',#1617,1.);
#1000=VECTOR('',#1618,1.);
#1001=VECTOR('',#1619,1.);
#1002=VECTOR('',#1620,1.);
#1003=VECTOR('',#1621,1.);
#1004=VECTOR('',#1622,1.);
#1005=VECTOR('',#1623,1.);
#1006=VECTOR('',#1624,1.);
#1007=VECTOR('',#1625,1.);
#1008=VECTOR('',#1626,1.);
#1009=VECTOR('',#1627,1.);
#1010=VECTOR('',#1628,1.);
#1011=VECTOR('',#1629,1.);
#1012=VECTOR('',#1630,1.);
#1013=VECTOR('',#1631,1.);
#1014=VECTOR('',#1632,1.);
#1015=VECTOR('',#1633,1.);
#1016=VECTOR('',#1634,1.);
#1017=VECTOR('',#1635,1.);
#1018=VECTOR('',#1636,1.);
#1019=VECTOR('',#1637,1.);
#1020=VECTOR('',#1640,1.);
#1021=VECTOR('',#1641,1.);
#1022=VECTOR('',#1642,1.);
#1023=VECTOR('',#1643,1.);
#1024=VECTOR('',#1644,1.);
#1025=VECTOR('',#1645,1.);
#1026=VECTOR('',#1646,1.);
#1027=VECTOR('',#1649,1.);
#1028=VECTOR('',#1650,1.);
#1029=VECTOR('',#1651,1.);
#1030=VECTOR('',#1652,1.);
#1031=VECTOR('',#1653,1.);
#1032=VECTOR('',#1654,1.);
#1033=VECTOR('',#1655,1.);
#1034=VECTOR('',#1658,1.);
#1035=VECTOR('',#1659,1.);
#1036=VECTOR('',#1660,1.);
#1037=VECTOR('',#1661,1.);
#1038=VECTOR('',#1662,1.);
#1039=VECTOR('',#1663,1.);
#1040=VECTOR('',#1664,1.);
#1041=VECTOR('',#1667,1.);
#1042=VECTOR('',#1668,1.);
#1043=VECTOR('',#1669,1.);
#1044=VECTOR('',#1670,1.);
#1045=VECTOR('',#1671,1.);
#1046=VECTOR('',#1672,1.);
#1047=VECTOR('',#1673,1.);
#1048=VECTOR('',#1676,1.);
#1049=VECTOR('',#1677,1.);
#1050=VECTOR('',#1678,1.);
#1051=VECTOR('',#1679,1.);
#1052=VECTOR('',#1680,1.);
#1053=VECTOR('',#1681,1.);
#1054=VECTOR('',#1682,1.);
#1055=VECTOR('',#1685,1.);
#1056=VECTOR('',#1686,1.);
#1057=VECTOR('',#1687,1.);
#1058=VECTOR('',#1688,1.);
#1059=VECTOR('',#1689,1.);
#1060=VECTOR('',#1690,1.);
#1061=VECTOR('',#1691,1.);
#1062=VECTOR('',#1694,1.);
#1063=VECTOR('',#1695,1.);
#1064=VECTOR('',#1696,1.);
#1065=VECTOR('',#1697,1.);
#1066=VECTOR('',#1698,1.);
#1067=VECTOR('',#1699,1.);
#1068=VECTOR('',#1700,1.);
#1069=VECTOR('',#1703,1.);
#1070=VECTOR('',#1704,1.);
#1071=VECTOR('',#1705,1.);
#1072=VECTOR('',#1706,1.);
#1073=VECTOR('',#1707,1.);
#1074=VECTOR('',#1708,1.);
#1075=VECTOR('',#1709,1.);
#1076=VECTOR('',#1712,1.);
#1077=VECTOR('',#1713,1.);
#1078=VECTOR('',#1714,1.);
#1079=VECTOR('',#1717,1.);
#1080=VECTOR('',#1718,1.);
#1081=VECTOR('',#1721,1.);
#1082=VECTOR('',#1722,1.);
#1083=VECTOR('',#1725,1.);
#1084=VECTOR('',#1726,1.);
#1085=VECTOR('',#1729,1.);
#1086=VECTOR('',#1730,1.);
#1087=VECTOR('',#1733,1.);
#1088=VECTOR('',#1734,1.);
#1089=VECTOR('',#1737,1.);
#1090=VECTOR('',#1738,1.);
#1091=VECTOR('',#1741,1.);
#1092=VECTOR('',#1742,1.);
#1093=VECTOR('',#1745,1.);
#1094=VECTOR('',#1746,1.);
#1095=VECTOR('',#1749,1.);
#1096=VECTOR('',#1750,1.);
#1097=VECTOR('',#1753,1.);
#1098=VECTOR('',#1754,1.);
#1099=VECTOR('',#1757,1.);
#1100=VECTOR('',#1758,1.);
#1101=VECTOR('',#1761,1.);
#1102=VECTOR('',#1762,1.);
#1103=VECTOR('',#1765,1.);
#1104=VECTOR('',#1766,1.);
#1105=VECTOR('',#1769,1.);
#1106=VECTOR('',#1770,1.);
#1107=VECTOR('',#1773,1.);
#1108=VECTOR('',#1774,1.);
#1109=VECTOR('',#1777,1.);
#1110=VECTOR('',#1778,1.);
#1111=VECTOR('',#1781,1.);
#1112=VECTOR('',#1782,1.);
#1113=VECTOR('',#1785,1.);
#1114=VECTOR('',#1786,1.);
#1115=VECTOR('',#1789,1.);
#1116=VECTOR('',#1792,1.);
#1117=VECTOR('',#1795,1.);
#1118=VECTOR('',#1798,1.);
#1119=VECTOR('',#1801,1.);
#1120=VECTOR('',#1804,1.);
#1121=VECTOR('',#1807,1.);
#1122=VECTOR('',#1810,1.);
#1123=VECTOR('',#1813,1.);
#1124=VECTOR('',#1816,1.);
#1125=VECTOR('',#1817,1.);
#1126=VECTOR('',#1818,1.);
#1127=VECTOR('',#1819,1.);
#1128=VECTOR('',#1820,1.);
#1129=VECTOR('',#1821,1.);
#1130=VECTOR('',#1822,1.);
#1131=VECTOR('',#1889,1.);
#1132=VECTOR('',#1890,1.);
#1133=VECTOR('',#1891,1.);
#1134=VECTOR('',#1894,1.);
#1135=VECTOR('',#1895,1.);
#1136=VECTOR('',#1898,1.);
#1137=VECTOR('',#1899,1.);
#1138=VECTOR('',#1902,1.);
#1139=VECTOR('',#1907,1.);
#1140=VECTOR('',#1908,1.);
#1141=VECTOR('',#1909,1.);
#1142=VECTOR('',#1912,1.);
#1143=VECTOR('',#1913,1.);
#1144=VECTOR('',#1916,1.);
#1145=VECTOR('',#1917,1.);
#1146=VECTOR('',#1920,1.);
#1147=VECTOR('',#1925,1.);
#1148=VECTOR('',#1926,1.);
#1149=VECTOR('',#1927,1.);
#1150=VECTOR('',#1930,1.);
#1151=VECTOR('',#1931,1.);
#1152=VECTOR('',#1934,1.);
#1153=VECTOR('',#1935,1.);
#1154=VECTOR('',#1938,1.);
#1155=VECTOR('',#1941,1.);
#1156=VECTOR('',#1942,1.);
#1157=VECTOR('',#1943,1.);
#1158=VECTOR('',#1946,1.);
#1159=VECTOR('',#1949,1.);
#1160=EDGE_LOOP('',(#36,#37,#38,#39));
#1161=EDGE_LOOP('',(#40,#41,#42,#43));
#1162=EDGE_LOOP('',(#44,#45,#46,#47));
#1163=EDGE_LOOP('',(#48,#49,#50,#51));
#1164=EDGE_LOOP('',(#52,#53,#54,#55));
#1165=EDGE_LOOP('',(#56,#57,#58,#59));
#1166=EDGE_LOOP('',(#60,#61,#62,#63));
#1167=EDGE_LOOP('',(#64,#65,#66,#67));
#1168=EDGE_LOOP('',(#68,#69,#70,#71));
#1169=EDGE_LOOP('',(#72,#73,#74,#75));
#1170=EDGE_LOOP('',(#76,#77,#78,#79));
#1171=EDGE_LOOP('',(#80,#81,#82,#83));
#1172=EDGE_LOOP('',(#84,#85,#86,#87,#88,#89,#90,#91));
#1173=EDGE_LOOP('',(#92,#93,#94,#95,#96,#97,#98,#99));
#1174=EDGE_LOOP('',(#100,#101,#102,#103,#104,#105,#106,#107));
#1175=EDGE_LOOP('',(#108,#109,#110,#111,#112,#113,#114,#115));
#1176=EDGE_LOOP('',(#116,#117,#118,#119,#120,#121,#122,#123));
#1177=EDGE_LOOP('',(#124,#125,#126,#127,#128,#129,#130,#131));
#1178=EDGE_LOOP('',(#132,#133,#134,#135,#136,#137,#138,#139));
#1179=EDGE_LOOP('',(#140,#141,#142,#143,#144,#145,#146,#147));
#1180=EDGE_LOOP('',(#148,#149,#150,#151));
#1181=EDGE_LOOP('',(#152,#153,#154,#155));
#1182=EDGE_LOOP('',(#156,#157,#158,#159));
#1183=EDGE_LOOP('',(#160,#161,#162,#163));
#1184=EDGE_LOOP('',(#164,#165,#166,#167));
#1185=EDGE_LOOP('',(#168,#169,#170,#171));
#1186=EDGE_LOOP('',(#172,#173,#174,#175));
#1187=EDGE_LOOP('',(#176,#177,#178,#179));
#1188=EDGE_LOOP('',(#180,#181,#182,#183));
#1189=EDGE_LOOP('',(#184,#185,#186,#187));
#1190=EDGE_LOOP('',(#188,#189,#190,#191));
#1191=EDGE_LOOP('',(#192,#193,#194,#195));
#1192=EDGE_LOOP('',(#196,#197,#198,#199));
#1193=EDGE_LOOP('',(#200,#201,#202,#203));
#1194=EDGE_LOOP('',(#204,#205,#206,#207));
#1195=EDGE_LOOP('',(#208,#209,#210,#211));
#1196=EDGE_LOOP('',(#212,#213,#214,#215));
#1197=EDGE_LOOP('',(#216,#217,#218,#219));
#1198=EDGE_LOOP('',(#220,#221,#222,#223));
#1199=EDGE_LOOP('',(#224,#225,#226,#227));
#1200=EDGE_LOOP('',(#228,#229,#230,#231));
#1201=EDGE_LOOP('',(#232,#233,#234,#235));
#1202=EDGE_LOOP('',(#236,#237,#238,#239));
#1203=EDGE_LOOP('',(#240,#241,#242,#243));
#1204=EDGE_LOOP('',(#244,#245,#246,#247));
#1205=EDGE_LOOP('',(#248,#249,#250,#251));
#1206=EDGE_LOOP('',(#252,#253,#254,#255));
#1207=EDGE_LOOP('',(#256,#257,#258,#259));
#1208=EDGE_LOOP('',(#260,#261,#262,#263,#264,#265,#266,#267));
#1209=EDGE_LOOP('',(#268,#269));
#1210=EDGE_LOOP('',(#270,#271));
#1211=EDGE_LOOP('',(#272,#273));
#1212=EDGE_LOOP('',(#274,#275));
#1213=EDGE_LOOP('',(#276,#277));
#1214=EDGE_LOOP('',(#278,#279));
#1215=EDGE_LOOP('',(#280,#281));
#1216=EDGE_LOOP('',(#282,#283));
#1217=EDGE_LOOP('',(#284,#285,#286,#287));
#1218=EDGE_LOOP('',(#288,#289,#290,#291,#292,#293));
#1219=EDGE_LOOP('',(#294,#295,#296,#297));
#1220=EDGE_LOOP('',(#298,#299,#300,#301,#302,#303));
#1221=EDGE_LOOP('',(#304,#305,#306,#307));
#1222=EDGE_LOOP('',(#308,#309,#310,#311,#312,#313));
#1223=EDGE_LOOP('',(#314,#315,#316,#317));
#1224=EDGE_LOOP('',(#318,#319,#320,#321,#322,#323));
#1225=EDGE_LOOP('',(#324,#325,#326,#327));
#1226=EDGE_LOOP('',(#328,#329,#330,#331,#332,#333));
#1227=EDGE_LOOP('',(#334,#335,#336,#337));
#1228=EDGE_LOOP('',(#338,#339,#340,#341,#342,#343));
#1229=EDGE_LOOP('',(#344,#345,#346,#347));
#1230=EDGE_LOOP('',(#348,#349,#350,#351,#352,#353));
#1231=EDGE_LOOP('',(#354,#355,#356,#357));
#1232=EDGE_LOOP('',(#358,#359,#360,#361,#362,#363));
#1233=EDGE_LOOP('',(#364,#365,#366,#367));
#1234=EDGE_LOOP('',(#368,#369,#370,#371));
#1235=EDGE_LOOP('',(#372,#373,#374,#375));
#1236=EDGE_LOOP('',(#376,#377,#378,#379));
#1237=EDGE_LOOP('',(#380,#381,#382,#383));
#1238=EDGE_LOOP('',(#384,#385,#386,#387));
#1239=EDGE_LOOP('',(#388,#389,#390,#391));
#1240=EDGE_LOOP('',(#392,#393,#394,#395));
#1241=EDGE_LOOP('',(#396,#397,#398,#399));
#1242=EDGE_LOOP('',(#400,#401,#402,#403));
#1243=EDGE_LOOP('',(#404,#405,#406,#407));
#1244=EDGE_LOOP('',(#408,#409,#410,#411));
#1245=EDGE_LOOP('',(#412,#413,#414,#415));
#1246=EDGE_LOOP('',(#416,#417,#418,#419));
#1247=EDGE_LOOP('',(#420,#421,#422,#423));
#1248=EDGE_LOOP('',(#424,#425,#426,#427,#428,#429,#430,#431));
#1249=EDGE_LOOP('',(#432,#433,#434,#435));
#1250=EDGE_LOOP('',(#436,#437,#438,#439));
#1251=EDGE_LOOP('',(#440,#441,#442,#443));
#1252=FACE_BOUND('',#1160,.T.);
#1253=FACE_BOUND('',#1161,.T.);
#1254=FACE_BOUND('',#1162,.T.);
#1255=FACE_BOUND('',#1163,.T.);
#1256=FACE_BOUND('',#1164,.T.);
#1257=FACE_BOUND('',#1165,.T.);
#1258=FACE_BOUND('',#1166,.T.);
#1259=FACE_BOUND('',#1167,.T.);
#1260=FACE_BOUND('',#1168,.T.);
#1261=FACE_BOUND('',#1169,.T.);
#1262=FACE_BOUND('',#1170,.T.);
#1263=FACE_BOUND('',#1171,.T.);
#1264=FACE_BOUND('',#1172,.T.);
#1265=FACE_BOUND('',#1173,.T.);
#1266=FACE_BOUND('',#1174,.T.);
#1267=FACE_BOUND('',#1175,.T.);
#1268=FACE_BOUND('',#1176,.T.);
#1269=FACE_BOUND('',#1177,.T.);
#1270=FACE_BOUND('',#1178,.T.);
#1271=FACE_BOUND('',#1179,.T.);
#1272=FACE_BOUND('',#1180,.T.);
#1273=FACE_BOUND('',#1181,.T.);
#1274=FACE_BOUND('',#1182,.T.);
#1275=FACE_BOUND('',#1183,.T.);
#1276=FACE_BOUND('',#1184,.T.);
#1277=FACE_BOUND('',#1185,.T.);
#1278=FACE_BOUND('',#1186,.T.);
#1279=FACE_BOUND('',#1187,.T.);
#1280=FACE_BOUND('',#1188,.T.);
#1281=FACE_BOUND('',#1189,.T.);
#1282=FACE_BOUND('',#1190,.T.);
#1283=FACE_BOUND('',#1191,.T.);
#1284=FACE_BOUND('',#1192,.T.);
#1285=FACE_BOUND('',#1193,.T.);
#1286=FACE_BOUND('',#1194,.T.);
#1287=FACE_BOUND('',#1195,.T.);
#1288=FACE_BOUND('',#1196,.T.);
#1289=FACE_BOUND('',#1197,.T.);
#1290=FACE_BOUND('',#1198,.T.);
#1291=FACE_BOUND('',#1199,.T.);
#1292=FACE_BOUND('',#1200,.T.);
#1293=FACE_BOUND('',#1201,.T.);
#1294=FACE_BOUND('',#1202,.T.);
#1295=FACE_BOUND('',#1203,.T.);
#1296=FACE_BOUND('',#1204,.T.);
#1297=FACE_BOUND('',#1205,.T.);
#1298=FACE_BOUND('',#1206,.T.);
#1299=FACE_BOUND('',#1207,.T.);
#1300=FACE_BOUND('',#1208,.T.);
#1301=FACE_BOUND('',#1209,.T.);
#1302=FACE_BOUND('',#1210,.T.);
#1303=FACE_BOUND('',#1211,.T.);
#1304=FACE_BOUND('',#1212,.T.);
#1305=FACE_BOUND('',#1213,.T.);
#1306=FACE_BOUND('',#1214,.T.);
#1307=FACE_BOUND('',#1215,.T.);
#1308=FACE_BOUND('',#1216,.T.);
#1309=FACE_BOUND('',#1217,.T.);
#1310=FACE_BOUND('',#1218,.T.);
#1311=FACE_BOUND('',#1219,.T.);
#1312=FACE_BOUND('',#1220,.T.);
#1313=FACE_BOUND('',#1221,.T.);
#1314=FACE_BOUND('',#1222,.T.);
#1315=FACE_BOUND('',#1223,.T.);
#1316=FACE_BOUND('',#1224,.T.);
#1317=FACE_BOUND('',#1225,.T.);
#1318=FACE_BOUND('',#1226,.T.);
#1319=FACE_BOUND('',#1227,.T.);
#1320=FACE_BOUND('',#1228,.T.);
#1321=FACE_BOUND('',#1229,.T.);
#1322=FACE_BOUND('',#1230,.T.);
#1323=FACE_BOUND('',#1231,.T.);
#1324=FACE_BOUND('',#1232,.T.);
#1325=FACE_BOUND('',#1233,.T.);
#1326=FACE_BOUND('',#1234,.T.);
#1327=FACE_BOUND('',#1235,.T.);
#1328=FACE_BOUND('',#1236,.T.);
#1329=FACE_BOUND('',#1237,.T.);
#1330=FACE_BOUND('',#1238,.T.);
#1331=FACE_BOUND('',#1239,.T.);
#1332=FACE_BOUND('',#1240,.T.);
#1333=FACE_BOUND('',#1241,.T.);
#1334=FACE_BOUND('',#1242,.T.);
#1335=FACE_BOUND('',#1243,.T.);
#1336=FACE_BOUND('',#1244,.T.);
#1337=FACE_BOUND('',#1245,.T.);
#1338=FACE_BOUND('',#1246,.T.);
#1339=FACE_BOUND('',#1247,.T.);
#1340=FACE_BOUND('',#1248,.T.);
#1341=FACE_BOUND('',#1249,.T.);
#1342=FACE_BOUND('',#1250,.T.);
#1343=FACE_BOUND('',#1251,.T.);
#1344=PLANE('',#1495);
#1345=PLANE('',#1496);
#1346=PLANE('',#1497);
#1347=PLANE('',#1498);
#1348=PLANE('',#1499);
#1349=PLANE('',#1500);
#1350=PLANE('',#1501);
#1351=PLANE('',#1502);
#1352=PLANE('',#1503);
#1353=PLANE('',#1504);
#1354=PLANE('',#1505);
#1355=PLANE('',#1506);
#1356=PLANE('',#1507);
#1357=PLANE('',#1508);
#1358=PLANE('',#1509);
#1359=PLANE('',#1510);
#1360=PLANE('',#1511);
#1361=PLANE('',#1512);
#1362=PLANE('',#1513);
#1363=PLANE('',#1514);
#1364=PLANE('',#1515);
#1365=PLANE('',#1516);
#1366=PLANE('',#1517);
#1367=PLANE('',#1518);
#1368=PLANE('',#1519);
#1369=PLANE('',#1520);
#1370=PLANE('',#1521);
#1371=PLANE('',#1522);
#1372=PLANE('',#1523);
#1373=PLANE('',#1524);
#1374=PLANE('',#1525);
#1375=PLANE('',#1526);
#1376=PLANE('',#1527);
#1377=PLANE('',#1528);
#1378=PLANE('',#1529);
#1379=PLANE('',#1530);
#1380=PLANE('',#1531);
#1381=PLANE('',#1532);
#1382=PLANE('',#1533);
#1383=PLANE('',#1544);
#1384=PLANE('',#1547);
#1385=PLANE('',#1550);
#1386=PLANE('',#1553);
#1387=PLANE('',#1556);
#1388=PLANE('',#1559);
#1389=PLANE('',#1562);
#1390=PLANE('',#1565);
#1391=PLANE('',#1566);
#1392=PLANE('',#1567);
#1393=PLANE('',#1568);
#1394=PLANE('',#1569);
#1395=PLANE('',#1570);
#1396=PLANE('',#1571);
#1397=PLANE('',#1572);
#1398=PLANE('',#1573);
#1399=PLANE('',#1574);
#1400=PLANE('',#1575);
#1401=PLANE('',#1576);
#1402=PLANE('',#1577);
#1403=PLANE('',#1578);
#1404=PLANE('',#1579);
#1405=PLANE('',#1580);
#1406=PLANE('',#1581);
#1407=PLANE('',#1582);
#1408=PLANE('',#1583);
#1409=ADVANCED_FACE('',(#1252),#1344,.T.);
#1410=ADVANCED_FACE('',(#1253,#1254,#1255,#1256,#1257,#1258,#1259,#1260,
#1261,#1262,#1263),#1345,.T.);
#1411=ADVANCED_FACE('',(#1264),#1346,.F.);
#1412=ADVANCED_FACE('',(#1265),#1347,.F.);
#1413=ADVANCED_FACE('',(#1266),#1348,.F.);
#1414=ADVANCED_FACE('',(#1267),#1349,.F.);
#1415=ADVANCED_FACE('',(#1268),#1350,.F.);
#1416=ADVANCED_FACE('',(#1269),#1351,.F.);
#1417=ADVANCED_FACE('',(#1270),#1352,.F.);
#1418=ADVANCED_FACE('',(#1271),#1353,.F.);
#1419=ADVANCED_FACE('',(#1272),#1354,.T.);
#1420=ADVANCED_FACE('',(#1273),#1355,.F.);
#1421=ADVANCED_FACE('',(#1274),#1356,.F.);
#1422=ADVANCED_FACE('',(#1275),#1357,.T.);
#1423=ADVANCED_FACE('',(#1276),#1358,.T.);
#1424=ADVANCED_FACE('',(#1277),#1359,.T.);
#1425=ADVANCED_FACE('',(#1278),#1360,.T.);
#1426=ADVANCED_FACE('',(#1279),#1361,.T.);
#1427=ADVANCED_FACE('',(#1280),#1362,.T.);
#1428=ADVANCED_FACE('',(#1281),#1363,.T.);
#1429=ADVANCED_FACE('',(#1282),#1364,.T.);
#1430=ADVANCED_FACE('',(#1283),#1365,.F.);
#1431=ADVANCED_FACE('',(#1284),#1366,.T.);
#1432=ADVANCED_FACE('',(#1285),#1367,.F.);
#1433=ADVANCED_FACE('',(#1286),#1368,.T.);
#1434=ADVANCED_FACE('',(#1287),#1369,.F.);
#1435=ADVANCED_FACE('',(#1288),#1370,.T.);
#1436=ADVANCED_FACE('',(#1289),#1371,.F.);
#1437=ADVANCED_FACE('',(#1290),#1372,.T.);
#1438=ADVANCED_FACE('',(#1291),#1373,.F.);
#1439=ADVANCED_FACE('',(#1292),#1374,.F.);
#1440=ADVANCED_FACE('',(#1293),#1375,.F.);
#1441=ADVANCED_FACE('',(#1294),#1376,.F.);
#1442=ADVANCED_FACE('',(#1295),#1377,.T.);
#1443=ADVANCED_FACE('',(#1296),#1378,.T.);
#1444=ADVANCED_FACE('',(#1297),#1379,.T.);
#1445=ADVANCED_FACE('',(#1298),#1380,.T.);
#1446=ADVANCED_FACE('',(#1299),#1381,.T.);
#1447=ADVANCED_FACE('',(#1300,#1301,#1302,#1303,#1304,#1305,#1306,#1307,
#1308),#1382,.F.);
#1448=ADVANCED_FACE('',(#1309),#12,.F.);
#1449=ADVANCED_FACE('',(#1310),#1383,.T.);
#1450=ADVANCED_FACE('',(#1311),#13,.F.);
#1451=ADVANCED_FACE('',(#1312),#1384,.T.);
#1452=ADVANCED_FACE('',(#1313),#14,.F.);
#1453=ADVANCED_FACE('',(#1314),#1385,.T.);
#1454=ADVANCED_FACE('',(#1315),#15,.F.);
#1455=ADVANCED_FACE('',(#1316),#1386,.T.);
#1456=ADVANCED_FACE('',(#1317),#16,.F.);
#1457=ADVANCED_FACE('',(#1318),#1387,.T.);
#1458=ADVANCED_FACE('',(#1319),#17,.F.);
#1459=ADVANCED_FACE('',(#1320),#1388,.T.);
#1460=ADVANCED_FACE('',(#1321),#18,.F.);
#1461=ADVANCED_FACE('',(#1322),#1389,.T.);
#1462=ADVANCED_FACE('',(#1323),#19,.F.);
#1463=ADVANCED_FACE('',(#1324),#1390,.T.);
#1464=ADVANCED_FACE('',(#1325),#1391,.T.);
#1465=ADVANCED_FACE('',(#1326),#1392,.F.);
#1466=ADVANCED_FACE('',(#1327),#1393,.F.);
#1467=ADVANCED_FACE('',(#1328),#1394,.T.);
#1468=ADVANCED_FACE('',(#1329),#1395,.T.);
#1469=ADVANCED_FACE('',(#1330),#1396,.T.);
#1470=ADVANCED_FACE('',(#1331),#1397,.F.);
#1471=ADVANCED_FACE('',(#1332),#1398,.F.);
#1472=ADVANCED_FACE('',(#1333),#1399,.T.);
#1473=ADVANCED_FACE('',(#1334),#1400,.T.);
#1474=ADVANCED_FACE('',(#1335),#1401,.F.);
#1475=ADVANCED_FACE('',(#1336),#1402,.F.);
#1476=ADVANCED_FACE('',(#1337),#1403,.T.);
#1477=ADVANCED_FACE('',(#1338),#1404,.T.);
#1478=ADVANCED_FACE('',(#1339,#1340),#1405,.T.);
#1479=ADVANCED_FACE('',(#1341),#1406,.T.);
#1480=ADVANCED_FACE('',(#1342),#1407,.F.);
#1481=ADVANCED_FACE('',(#1343),#1408,.T.);
#1482=CLOSED_SHELL('',(#1409,#1410,#1411,#1412,#1413,#1414,#1415,#1416,
#1417,#1418,#1419,#1420,#1421,#1422,#1423,#1424,#1425,#1426,#1427,#1428,
#1429,#1430,#1431,#1432,#1433,#1434,#1435,#1436,#1437,#1438,#1439,#1440,
#1441,#1442,#1443,#1444,#1445,#1446,#1447,#1448,#1449,#1450,#1451,#1452,
#1453,#1454,#1455,#1456,#1457,#1458,#1459,#1460,#1461,#1462,#1463,#1464,
#1465,#1466,#1467,#1468,#1469,#1470,#1471,#1472,#1473,#1474,#1475,#1476,
#1477,#1478,#1479,#1480,#1481));
#1483=STYLED_ITEM('',(#1484),#1491);
#1484=PRESENTATION_STYLE_ASSIGNMENT((#1485));
#1485=SURFACE_STYLE_USAGE(.BOTH.,#1486);
#1486=SURFACE_SIDE_STYLE('',(#1487));
#1487=SURFACE_STYLE_FILL_AREA(#1488);
#1488=FILL_AREA_STYLE('',(#1489));
#1489=FILL_AREA_STYLE_COLOUR('',#1490);
#1490=COLOUR_RGB('',0.615686274509804,0.811764705882353,0.929411764705882);
#1491=MANIFOLD_SOLID_BREP('Part 1',#1482);
#1492=SHAPE_DEFINITION_REPRESENTATION(#2372,#1493);
#1493=SHAPE_REPRESENTATION('Part 1',(#1494),#2367);
#1494=AXIS2_PLACEMENT_3D('',#1952,#1584,#1585);
#1495=AXIS2_PLACEMENT_3D('',#1953,#1586,#1587);
#1496=AXIS2_PLACEMENT_3D('',#1962,#1592,#1593);
#1497=AXIS2_PLACEMENT_3D('',#2051,#1638,#1639);
#1498=AXIS2_PLACEMENT_3D('',#2065,#1647,#1648);
#1499=AXIS2_PLACEMENT_3D('',#2079,#1656,#1657);
#1500=AXIS2_PLACEMENT_3D('',#2093,#1665,#1666);
#1501=AXIS2_PLACEMENT_3D('',#2107,#1674,#1675);
#1502=AXIS2_PLACEMENT_3D('',#2121,#1683,#1684);
#1503=AXIS2_PLACEMENT_3D('',#2135,#1692,#1693);
#1504=AXIS2_PLACEMENT_3D('',#2149,#1701,#1702);
#1505=AXIS2_PLACEMENT_3D('',#2163,#1710,#1711);
#1506=AXIS2_PLACEMENT_3D('',#2169,#1715,#1716);
#1507=AXIS2_PLACEMENT_3D('',#2173,#1719,#1720);
#1508=AXIS2_PLACEMENT_3D('',#2177,#1723,#1724);
#1509=AXIS2_PLACEMENT_3D('',#2181,#1727,#1728);
#1510=AXIS2_PLACEMENT_3D('',#2185,#1731,#1732);
#1511=AXIS2_PLACEMENT_3D('',#2189,#1735,#1736);
#1512=AXIS2_PLACEMENT_3D('',#2193,#1739,#1740);
#1513=AXIS2_PLACEMENT_3D('',#2197,#1743,#1744);
#1514=AXIS2_PLACEMENT_3D('',#2201,#1747,#1748);
#1515=AXIS2_PLACEMENT_3D('',#2205,#1751,#1752);
#1516=AXIS2_PLACEMENT_3D('',#2209,#1755,#1756);
#1517=AXIS2_PLACEMENT_3D('',#2213,#1759,#1760);
#1518=AXIS2_PLACEMENT_3D('',#2217,#1763,#1764);
#1519=AXIS2_PLACEMENT_3D('',#2221,#1767,#1768);
#1520=AXIS2_PLACEMENT_3D('',#2225,#1771,#1772);
#1521=AXIS2_PLACEMENT_3D('',#2229,#1775,#1776);
#1522=AXIS2_PLACEMENT_3D('',#2233,#1779,#1780);
#1523=AXIS2_PLACEMENT_3D('',#2237,#1783,#1784);
#1524=AXIS2_PLACEMENT_3D('',#2241,#1787,#1788);
#1525=AXIS2_PLACEMENT_3D('',#2243,#1790,#1791);
#1526=AXIS2_PLACEMENT_3D('',#2245,#1793,#1794);
#1527=AXIS2_PLACEMENT_3D('',#2247,#1796,#1797);
#1528=AXIS2_PLACEMENT_3D('',#2249,#1799,#1800);
#1529=AXIS2_PLACEMENT_3D('',#2251,#1802,#1803);
#1530=AXIS2_PLACEMENT_3D('',#2253,#1805,#1806);
#1531=AXIS2_PLACEMENT_3D('',#2255,#1808,#1809);
#1532=AXIS2_PLACEMENT_3D('',#2257,#1811,#1812);
#1533=AXIS2_PLACEMENT_3D('',#2259,#1814,#1815);
#1534=AXIS2_PLACEMENT_3D('',#2273,#1823,#1824);
#1535=AXIS2_PLACEMENT_3D('',#2274,#1825,#1826);
#1536=AXIS2_PLACEMENT_3D('',#2275,#1827,#1828);
#1537=AXIS2_PLACEMENT_3D('',#2276,#1829,#1830);
#1538=AXIS2_PLACEMENT_3D('',#2277,#1831,#1832);
#1539=AXIS2_PLACEMENT_3D('',#2278,#1833,#1834);
#1540=AXIS2_PLACEMENT_3D('',#2279,#1835,#1836);
#1541=AXIS2_PLACEMENT_3D('',#2280,#1837,#1838);
#1542=AXIS2_PLACEMENT_3D('',#2281,#1839,#1840);
#1543=AXIS2_PLACEMENT_3D('',#2282,#1841,#1842);
#1544=AXIS2_PLACEMENT_3D('',#2283,#1843,#1844);
#1545=AXIS2_PLACEMENT_3D('',#2284,#1845,#1846);
#1546=AXIS2_PLACEMENT_3D('',#2285,#1847,#1848);
#1547=AXIS2_PLACEMENT_3D('',#2286,#1849,#1850);
#1548=AXIS2_PLACEMENT_3D('',#2287,#1851,#1852);
#1549=AXIS2_PLACEMENT_3D('',#2288,#1853,#1854);
#1550=AXIS2_PLACEMENT_3D('',#2289,#1855,#1856);
#1551=AXIS2_PLACEMENT_3D('',#2290,#1857,#1858);
#1552=AXIS2_PLACEMENT_3D('',#2291,#1859,#1860);
#1553=AXIS2_PLACEMENT_3D('',#2292,#1861,#1862);
#1554=AXIS2_PLACEMENT_3D('',#2293,#1863,#1864);
#1555=AXIS2_PLACEMENT_3D('',#2294,#1865,#1866);
#1556=AXIS2_PLACEMENT_3D('',#2295,#1867,#1868);
#1557=AXIS2_PLACEMENT_3D('',#2296,#1869,#1870);
#1558=AXIS2_PLACEMENT_3D('',#2297,#1871,#1872);
#1559=AXIS2_PLACEMENT_3D('',#2298,#1873,#1874);
#1560=AXIS2_PLACEMENT_3D('',#2299,#1875,#1876);
#1561=AXIS2_PLACEMENT_3D('',#2300,#1877,#1878);
#1562=AXIS2_PLACEMENT_3D('',#2301,#1879,#1880);
#1563=AXIS2_PLACEMENT_3D('',#2302,#1881,#1882);
#1564=AXIS2_PLACEMENT_3D('',#2303,#1883,#1884);
#1565=AXIS2_PLACEMENT_3D('',#2304,#1885,#1886);
#1566=AXIS2_PLACEMENT_3D('',#2305,#1887,#1888);
#1567=AXIS2_PLACEMENT_3D('',#2311,#1892,#1893);
#1568=AXIS2_PLACEMENT_3D('',#2315,#1896,#1897);
#1569=AXIS2_PLACEMENT_3D('',#2319,#1900,#1901);
#1570=AXIS2_PLACEMENT_3D('',#2321,#1903,#1904);
#1571=AXIS2_PLACEMENT_3D('',#2322,#1905,#1906);
#1572=AXIS2_PLACEMENT_3D('',#2328,#1910,#1911);
#1573=AXIS2_PLACEMENT_3D('',#2332,#1914,#1915);
#1574=AXIS2_PLACEMENT_3D('',#2336,#1918,#1919);
#1575=AXIS2_PLACEMENT_3D('',#2338,#1921,#1922);
#1576=AXIS2_PLACEMENT_3D('',#2339,#1923,#1924);
#1577=AXIS2_PLACEMENT_3D('',#2345,#1928,#1929);
#1578=AXIS2_PLACEMENT_3D('',#2349,#1932,#1933);
#1579=AXIS2_PLACEMENT_3D('',#2353,#1936,#1937);
#1580=AXIS2_PLACEMENT_3D('',#2355,#1939,#1940);
#1581=AXIS2_PLACEMENT_3D('',#2361,#1944,#1945);
#1582=AXIS2_PLACEMENT_3D('',#2363,#1947,#1948);
#1583=AXIS2_PLACEMENT_3D('',#2365,#1950,#1951);
#1584=DIRECTION('',(0.,0.,1.));
#1585=DIRECTION('',(1.,0.,0.));
#1586=DIRECTION('',(0.,1.,0.));
#1587=DIRECTION('',(0.,0.,1.));
#1588=DIRECTION('',(1.,0.,0.));
#1589=DIRECTION('',(0.,0.,-1.));
#1590=DIRECTION('',(1.,0.,0.));
#1591=DIRECTION('',(0.,0.,-1.));
#1592=DIRECTION('',(0.,0.,1.));
#1593=DIRECTION('',(1.,0.,0.));
#1594=DIRECTION('',(1.,0.,0.));
#1595=DIRECTION('',(0.,-1.,0.));
#1596=DIRECTION('',(1.,0.,0.));
#1597=DIRECTION('',(0.,-1.,0.));
#1598=DIRECTION('',(1.,0.,0.));
#1599=DIRECTION('',(0.,-1.,0.));
#1600=DIRECTION('',(1.,0.,0.));
#1601=DIRECTION('',(0.,-1.,0.));
#1602=DIRECTION('',(1.,0.,0.));
#1603=DIRECTION('',(0.,-1.,0.));
#1604=DIRECTION('',(1.,0.,0.));
#1605=DIRECTION('',(8.67361737988404E-17,-1.,0.));
#1606=DIRECTION('',(1.,0.,0.));
#1607=DIRECTION('',(0.,-1.,0.));
#1608=DIRECTION('',(1.,0.,0.));
#1609=DIRECTION('',(0.,-1.,0.));
#1610=DIRECTION('',(1.,0.,0.));
#1611=DIRECTION('',(0.,1.,0.));
#1612=DIRECTION('',(1.,0.,0.));
#1613=DIRECTION('',(0.,1.,0.));
#1614=DIRECTION('',(1.,0.,0.));
#1615=DIRECTION('',(0.,1.,0.));
#1616=DIRECTION('',(1.,0.,0.));
#1617=DIRECTION('',(0.,1.,0.));
#1618=DIRECTION('',(1.,0.,0.));
#1619=DIRECTION('',(0.,1.,0.));
#1620=DIRECTION('',(1.,0.,0.));
#1621=DIRECTION('',(8.67361737988404E-17,1.,0.));
#1622=DIRECTION('',(1.,0.,0.));
#1623=DIRECTION('',(0.,1.,0.));
#1624=DIRECTION('',(1.,0.,0.));
#1625=DIRECTION('',(0.,1.,0.));
#1626=DIRECTION('',(1.,0.,0.));
#1627=DIRECTION('',(0.,-1.,0.));
#1628=DIRECTION('',(1.,0.,0.));
#1629=DIRECTION('',(0.,-1.,0.));
#1630=DIRECTION('',(0.,-1.,0.));
#1631=DIRECTION('',(1.,0.,0.));
#1632=DIRECTION('',(0.,-1.,0.));
#1633=DIRECTION('',(1.,0.,0.));
#1634=DIRECTION('',(0.,-1.,0.));
#1635=DIRECTION('',(1.,0.,0.));
#1636=DIRECTION('',(0.,-1.,0.));
#1637=DIRECTION('',(1.,0.,0.));
#1638=DIRECTION('',(0.,1.,0.));
#1639=DIRECTION('',(0.,0.,1.));
#1640=DIRECTION('',(0.,0.,-1.));
#1641=DIRECTION('',(1.,0.,0.));
#1642=DIRECTION('',(0.,0.,-1.));
#1643=DIRECTION('',(0.,0.,-1.));
#1644=DIRECTION('',(1.,0.,0.));
#1645=DIRECTION('',(0.,0.,-1.));
#1646=DIRECTION('',(1.,0.,0.));
#1647=DIRECTION('',(0.,1.,0.));
#1648=DIRECTION('',(0.,0.,1.));
#1649=DIRECTION('',(0.,0.,-1.));
#1650=DIRECTION('',(1.,0.,0.));
#1651=DIRECTION('',(0.,0.,-1.));
#1652=DIRECTION('',(0.,0.,-1.));
#1653=DIRECTION('',(1.,0.,0.));
#1654=DIRECTION('',(0.,0.,-1.));
#1655=DIRECTION('',(1.,0.,0.));
#1656=DIRECTION('',(0.,1.,0.));
#1657=DIRECTION('',(0.,0.,1.));
#1658=DIRECTION('',(0.,0.,-1.));
#1659=DIRECTION('',(1.,0.,0.));
#1660=DIRECTION('',(0.,0.,-1.));
#1661=DIRECTION('',(0.,0.,-1.));
#1662=DIRECTION('',(1.,0.,0.));
#1663=DIRECTION('',(0.,0.,-1.));
#1664=DIRECTION('',(1.,0.,0.));
#1665=DIRECTION('',(0.,1.,0.));
#1666=DIRECTION('',(0.,0.,1.));
#1667=DIRECTION('',(0.,0.,-1.));
#1668=DIRECTION('',(1.,0.,0.));
#1669=DIRECTION('',(0.,0.,-1.));
#1670=DIRECTION('',(0.,0.,-1.));
#1671=DIRECTION('',(1.,0.,0.));
#1672=DIRECTION('',(0.,0.,-1.));
#1673=DIRECTION('',(1.,0.,0.));
#1674=DIRECTION('',(0.,1.,0.));
#1675=DIRECTION('',(0.,0.,1.));
#1676=DIRECTION('',(0.,0.,-1.));
#1677=DIRECTION('',(1.,0.,0.));
#1678=DIRECTION('',(0.,0.,-1.));
#1679=DIRECTION('',(0.,0.,-1.));
#1680=DIRECTION('',(1.,0.,0.));
#1681=DIRECTION('',(0.,0.,-1.));
#1682=DIRECTION('',(1.,0.,0.));
#1683=DIRECTION('',(0.,1.,0.));
#1684=DIRECTION('',(0.,0.,1.));
#1685=DIRECTION('',(0.,0.,-1.));
#1686=DIRECTION('',(1.,0.,0.));
#1687=DIRECTION('',(0.,0.,-1.));
#1688=DIRECTION('',(0.,0.,-1.));
#1689=DIRECTION('',(1.,0.,0.));
#1690=DIRECTION('',(0.,0.,-1.));
#1691=DIRECTION('',(1.,0.,0.));
#1692=DIRECTION('',(0.,1.,0.));
#1693=DIRECTION('',(0.,0.,1.));
#1694=DIRECTION('',(0.,0.,-1.));
#1695=DIRECTION('',(1.,0.,0.));
#1696=DIRECTION('',(0.,0.,-1.));
#1697=DIRECTION('',(0.,0.,-1.));
#1698=DIRECTION('',(1.,0.,0.));
#1699=DIRECTION('',(0.,0.,-1.));
#1700=DIRECTION('',(1.,0.,0.));
#1701=DIRECTION('',(0.,1.,0.));
#1702=DIRECTION('',(0.,0.,1.));
#1703=DIRECTION('',(0.,0.,-1.));
#1704=DIRECTION('',(1.,0.,0.));
#1705=DIRECTION('',(0.,0.,-1.));
#1706=DIRECTION('',(0.,0.,-1.));
#1707=DIRECTION('',(1.,0.,0.));
#1708=DIRECTION('',(0.,0.,-1.));
#1709=DIRECTION('',(1.,0.,0.));
#1710=DIRECTION('',(0.,1.,0.));
#1711=DIRECTION('',(0.,0.,1.));
#1712=DIRECTION('',(1.,0.,0.));
#1713=DIRECTION('',(0.,0.,-1.));
#1714=DIRECTION('',(0.,0.,-1.));
#1715=DIRECTION('',(1.,0.,0.));
#1716=DIRECTION('',(0.,0.,-1.));
#1717=DIRECTION('',(0.,-1.,0.));
#1718=DIRECTION('',(0.,0.,-1.));
#1719=DIRECTION('',(0.,1.,0.));
#1720=DIRECTION('',(0.,0.,1.));
#1721=DIRECTION('',(1.,0.,0.));
#1722=DIRECTION('',(0.,0.,-1.));
#1723=DIRECTION('',(-1.,0.,0.));
#1724=DIRECTION('',(0.,0.,1.));
#1725=DIRECTION('',(0.,1.,0.));
#1726=DIRECTION('',(0.,0.,-1.));
#1727=DIRECTION('',(0.,1.,0.));
#1728=DIRECTION('',(0.,0.,1.));
#1729=DIRECTION('',(1.,0.,0.));
#1730=DIRECTION('',(0.,0.,-1.));
#1731=DIRECTION('',(-1.,0.,0.));
#1732=DIRECTION('',(0.,0.,1.));
#1733=DIRECTION('',(0.,1.,0.));
#1734=DIRECTION('',(0.,0.,-1.));
#1735=DIRECTION('',(0.,1.,0.));
#1736=DIRECTION('',(0.,0.,1.));
#1737=DIRECTION('',(1.,0.,0.));
#1738=DIRECTION('',(0.,0.,-1.));
#1739=DIRECTION('',(-1.,0.,0.));
#1740=DIRECTION('',(0.,0.,1.));
#1741=DIRECTION('',(0.,1.,0.));
#1742=DIRECTION('',(0.,0.,-1.));
#1743=DIRECTION('',(0.,1.,0.));
#1744=DIRECTION('',(0.,0.,1.));
#1745=DIRECTION('',(1.,0.,0.));
#1746=DIRECTION('',(0.,0.,-1.));
#1747=DIRECTION('',(-1.,0.,0.));
#1748=DIRECTION('',(0.,0.,1.));
#1749=DIRECTION('',(0.,1.,0.));
#1750=DIRECTION('',(0.,0.,-1.));
#1751=DIRECTION('',(0.,1.,0.));
#1752=DIRECTION('',(0.,0.,1.));
#1753=DIRECTION('',(1.,0.,0.));
#1754=DIRECTION('',(0.,0.,-1.));
#1755=DIRECTION('',(1.,0.,0.));
#1756=DIRECTION('',(0.,0.,-1.));
#1757=DIRECTION('',(0.,-1.,0.));
#1758=DIRECTION('',(0.,0.,-1.));
#1759=DIRECTION('',(0.,1.,0.));
#1760=DIRECTION('',(0.,0.,1.));
#1761=DIRECTION('',(1.,0.,0.));
#1762=DIRECTION('',(0.,0.,-1.));
#1763=DIRECTION('',(1.,0.,0.));
#1764=DIRECTION('',(0.,0.,-1.));
#1765=DIRECTION('',(0.,-1.,0.));
#1766=DIRECTION('',(0.,0.,-1.));
#1767=DIRECTION('',(0.,1.,0.));
#1768=DIRECTION('',(0.,0.,1.));
#1769=DIRECTION('',(1.,0.,0.));
#1770=DIRECTION('',(0.,0.,-1.));
#1771=DIRECTION('',(1.,0.,0.));
#1772=DIRECTION('',(0.,0.,-1.));
#1773=DIRECTION('',(0.,-1.,0.));
#1774=DIRECTION('',(0.,0.,-1.));
#1775=DIRECTION('',(0.,1.,0.));
#1776=DIRECTION('',(0.,0.,1.));
#1777=DIRECTION('',(1.,0.,0.));
#1778=DIRECTION('',(0.,0.,-1.));
#1779=DIRECTION('',(1.,0.,0.));
#1780=DIRECTION('',(0.,0.,-1.));
#1781=DIRECTION('',(0.,-1.,0.));
#1782=DIRECTION('',(0.,0.,-1.));
#1783=DIRECTION('',(0.,1.,0.));
#1784=DIRECTION('',(0.,0.,1.));
#1785=DIRECTION('',(1.,0.,0.));
#1786=DIRECTION('',(0.,0.,-1.));
#1787=DIRECTION('',(-1.,0.,0.));
#1788=DIRECTION('',(0.,0.,1.));
#1789=DIRECTION('',(0.,1.,0.));
#1790=DIRECTION('',(-1.,8.67361737988404E-17,0.));
#1791=DIRECTION('',(-8.67361737988404E-17,-1.,0.));
#1792=DIRECTION('',(8.67361737988404E-17,1.,0.));
#1793=DIRECTION('',(-1.,0.,0.));
#1794=DIRECTION('',(0.,0.,1.));
#1795=DIRECTION('',(0.,1.,0.));
#1796=DIRECTION('',(-1.,0.,0.));
#1797=DIRECTION('',(0.,0.,1.));
#1798=DIRECTION('',(0.,1.,0.));
#1799=DIRECTION('',(1.,0.,0.));
#1800=DIRECTION('',(0.,0.,-1.));
#1801=DIRECTION('',(0.,-1.,0.));
#1802=DIRECTION('',(1.,8.67361737988404E-17,0.));
#1803=DIRECTION('',(-8.67361737988404E-17,1.,0.));
#1804=DIRECTION('',(8.67361737988404E-17,-1.,0.));
#1805=DIRECTION('',(1.,0.,0.));
#1806=DIRECTION('',(0.,0.,-1.));
#1807=DIRECTION('',(0.,-1.,0.));
#1808=DIRECTION('',(1.,0.,0.));
#1809=DIRECTION('',(0.,0.,-1.));
#1810=DIRECTION('',(0.,-1.,0.));
#1811=DIRECTION('',(1.,0.,0.));
#1812=DIRECTION('',(0.,0.,-1.));
#1813=DIRECTION('',(0.,-1.,0.));
#1814=DIRECTION('',(0.,0.,1.));
#1815=DIRECTION('',(1.,0.,0.));
#1816=DIRECTION('',(-1.0842021724855E-16,-1.,0.));
#1817=DIRECTION('',(1.,0.,0.));
#1818=DIRECTION('',(0.,-1.,0.));
#1819=DIRECTION('',(1.,0.,0.));
#1820=DIRECTION('',(0.,1.,0.));
#1821=DIRECTION('',(1.,0.,0.));
#1822=DIRECTION('',(0.,1.,0.));
#1823=DIRECTION('',(0.,0.,1.));
#1824=DIRECTION('',(1.,0.,0.));
#1825=DIRECTION('',(0.,0.,1.));
#1826=DIRECTION('',(1.,0.,0.));
#1827=DIRECTION('',(0.,0.,1.));
#1828=DIRECTION('',(1.,0.,0.));
#1829=DIRECTION('',(0.,0.,1.));
#1830=DIRECTION('',(1.,0.,0.));
#1831=DIRECTION('',(0.,0.,1.));
#1832=DIRECTION('',(1.,0.,0.));
#1833=DIRECTION('',(0.,0.,1.));
#1834=DIRECTION('',(1.,0.,0.));
#1835=DIRECTION('',(0.,0.,1.));
#1836=DIRECTION('',(1.,0.,0.));
#1837=DIRECTION('',(0.,0.,1.));
#1838=DIRECTION('',(1.,0.,0.));
#1839=DIRECTION('',(0.,0.,-1.));
#1840=DIRECTION('',(-1.,0.,0.));
#1841=DIRECTION('',(0.,0.,1.));
#1842=DIRECTION('',(1.,0.,0.));
#1843=DIRECTION('',(0.,0.,1.));
#1844=DIRECTION('',(1.,0.,0.));
#1845=DIRECTION('',(0.,0.,-1.));
#1846=DIRECTION('',(-1.,0.,0.));
#1847=DIRECTION('',(0.,0.,1.));
#1848=DIRECTION('',(1.,0.,0.));
#1849=DIRECTION('',(0.,0.,1.));
#1850=DIRECTION('',(1.,0.,0.));
#1851=DIRECTION('',(0.,0.,-1.));
#1852=DIRECTION('',(-1.,0.,0.));
#1853=DIRECTION('',(0.,0.,1.));
#1854=DIRECTION('',(1.,0.,0.));
#1855=DIRECTION('',(0.,0.,1.));
#1856=DIRECTION('',(1.,0.,0.));
#1857=DIRECTION('',(0.,0.,-1.));
#1858=DIRECTION('',(-1.,0.,0.));
#1859=DIRECTION('',(0.,0.,1.));
#1860=DIRECTION('',(1.,0.,0.));
#1861=DIRECTION('',(0.,0.,1.));
#1862=DIRECTION('',(1.,0.,0.));
#1863=DIRECTION('',(0.,0.,-1.));
#1864=DIRECTION('',(-1.,0.,0.));
#1865=DIRECTION('',(0.,0.,1.));
#1866=DIRECTION('',(1.,0.,0.));
#1867=DIRECTION('',(0.,0.,1.));
#1868=DIRECTION('',(1.,0.,0.));
#1869=DIRECTION('',(0.,0.,-1.));
#1870=DIRECTION('',(-1.,0.,0.));
#1871=DIRECTION('',(0.,0.,1.));
#1872=DIRECTION('',(1.,0.,0.));
#1873=DIRECTION('',(0.,0.,1.));
#1874=DIRECTION('',(1.,0.,0.));
#1875=DIRECTION('',(0.,0.,-1.));
#1876=DIRECTION('',(-1.,0.,0.));
#1877=DIRECTION('',(0.,0.,1.));
#1878=DIRECTION('',(1.,0.,0.));
#1879=DIRECTION('',(0.,0.,1.));
#1880=DIRECTION('',(1.,0.,0.));
#1881=DIRECTION('',(0.,0.,-1.));
#1882=DIRECTION('',(-1.,0.,0.));
#1883=DIRECTION('',(0.,0.,1.));
#1884=DIRECTION('',(1.,0.,0.));
#1885=DIRECTION('',(0.,0.,1.));
#1886=DIRECTION('',(1.,0.,0.));
#1887=DIRECTION('',(0.,-1.,0.));
#1888=DIRECTION('',(0.,0.,-1.));
#1889=DIRECTION('',(0.,0.,1.));
#1890=DIRECTION('',(1.,0.,0.));
#1891=DIRECTION('',(0.,0.,1.));
#1892=DIRECTION('',(-1.,0.,0.));
#1893=DIRECTION('',(0.,0.,1.));
#1894=DIRECTION('',(0.,0.,1.));
#1895=DIRECTION('',(0.,-1.,0.));
#1896=DIRECTION('',(0.,-1.,0.));
#1897=DIRECTION('',(0.,0.,-1.));
#1898=DIRECTION('',(0.,0.,1.));
#1899=DIRECTION('',(1.,0.,0.));
#1900=DIRECTION('',(-1.,0.,0.));
#1901=DIRECTION('',(0.,0.,1.));
#1902=DIRECTION('',(0.,-1.,0.));
#1903=DIRECTION('',(0.,0.,1.));
#1904=DIRECTION('',(1.,0.,0.));
#1905=DIRECTION('',(0.,-1.,0.));
#1906=DIRECTION('',(0.,0.,-1.));
#1907=DIRECTION('',(0.,0.,1.));
#1908=DIRECTION('',(1.,0.,0.));
#1909=DIRECTION('',(0.,0.,1.));
#1910=DIRECTION('',(-1.,0.,0.));
#1911=DIRECTION('',(0.,0.,1.));
#1912=DIRECTION('',(0.,0.,1.));
#1913=DIRECTION('',(0.,-1.,0.));
#1914=DIRECTION('',(0.,-1.,0.));
#1915=DIRECTION('',(0.,0.,-1.));
#1916=DIRECTION('',(0.,0.,1.));
#1917=DIRECTION('',(1.,0.,0.));
#1918=DIRECTION('',(-1.,0.,0.));
#1919=DIRECTION('',(0.,0.,1.));
#1920=DIRECTION('',(0.,-1.,0.));
#1921=DIRECTION('',(0.,0.,1.));
#1922=DIRECTION('',(1.,0.,0.));
#1923=DIRECTION('',(0.,1.,0.));
#1924=DIRECTION('',(0.,0.,1.));
#1925=DIRECTION('',(0.,0.,-1.));
#1926=DIRECTION('',(1.,0.,0.));
#1927=DIRECTION('',(0.,0.,-1.));
#1928=DIRECTION('',(-1.,0.,0.));
#1929=DIRECTION('',(0.,0.,1.));
#1930=DIRECTION('',(0.,0.,-1.));
#1931=DIRECTION('',(0.,1.,0.));
#1932=DIRECTION('',(0.,1.,0.));
#1933=DIRECTION('',(0.,0.,1.));
#1934=DIRECTION('',(0.,0.,-1.));
#1935=DIRECTION('',(1.,0.,0.));
#1936=DIRECTION('',(-1.,0.,0.));
#1937=DIRECTION('',(0.,0.,1.));
#1938=DIRECTION('',(0.,1.,0.));
#1939=DIRECTION('',(0.,0.,-1.));
#1940=DIRECTION('',(1.,0.,0.));
#1941=DIRECTION('',(0.,-1.,0.));
#1942=DIRECTION('',(1.,0.,0.));
#1943=DIRECTION('',(-1.0842021724855E-16,-1.,0.));
#1944=DIRECTION('',(1.,-1.0842021724855E-16,0.));
#1945=DIRECTION('',(1.0842021724855E-16,1.,0.));
#1946=DIRECTION('',(0.,0.,-1.));
#1947=DIRECTION('',(1.,0.,0.));
#1948=DIRECTION('',(0.,0.,-1.));
#1949=DIRECTION('',(0.,0.,-1.));
#1950=DIRECTION('',(0.,1.,0.));
#1951=DIRECTION('',(0.,0.,1.));
#1952=CARTESIAN_POINT('',(0.,0.,0.));
#1953=CARTESIAN_POINT('',(0.00852191105484963,0.0739100981324911,0.001));
#1954=CARTESIAN_POINT('',(0.00852191105484963,0.0739100981324911,0.001));
#1955=CARTESIAN_POINT('',(-0.0994280889451504,0.0739100981324911,0.001));
#1956=CARTESIAN_POINT('',(-0.00152808894515036,0.0739100981324911,0.001));
#1957=CARTESIAN_POINT('',(-0.00152808894515036,0.0739100981324911,0.001));
#1958=CARTESIAN_POINT('',(-0.00152808894515036,0.0739100981324911,0.));
#1959=CARTESIAN_POINT('',(0.00852191105484963,0.0739100981324911,0.));
#1960=CARTESIAN_POINT('',(-0.0994280889451504,0.0739100981324911,0.));
#1961=CARTESIAN_POINT('',(-0.0994280889451504,0.0739100981324911,0.001));
#1962=CARTESIAN_POINT('',(0.00852191105484963,0.0159600981324911,0.005));
#1963=CARTESIAN_POINT('',(-0.0664780889451504,0.0609600981324911,0.005));
#1964=CARTESIAN_POINT('',(-0.0864780889451504,0.0609600981324911,0.005));
#1965=CARTESIAN_POINT('',(-0.0464780889451504,0.0609600981324911,0.005));
#1966=CARTESIAN_POINT('',(-0.0464780889451504,0.0409600981324911,0.005));
#1967=CARTESIAN_POINT('',(-0.0464780889451504,0.0209600981324911,0.005));
#1968=CARTESIAN_POINT('',(-0.0664780889451504,0.0209600981324911,0.005));
#1969=CARTESIAN_POINT('',(-0.0864780889451504,0.0209600981324911,0.005));
#1970=CARTESIAN_POINT('',(-0.0864780889451504,0.0409600981324911,0.005));
#1971=CARTESIAN_POINT('',(-0.0164780889451504,0.0609600981324911,0.005));
#1972=CARTESIAN_POINT('',(-0.0364780889451504,0.0609600981324911,0.005));
#1973=CARTESIAN_POINT('',(0.00352191105484963,0.0609600981324911,0.005));
#1974=CARTESIAN_POINT('',(0.00352191105484963,0.0409600981324911,0.005));
#1975=CARTESIAN_POINT('',(0.00352191105484963,0.0209600981324911,0.005));
#1976=CARTESIAN_POINT('',(-0.0164780889451504,0.0209600981324911,0.005));
#1977=CARTESIAN_POINT('',(-0.0364780889451504,0.0209600981324911,0.005));
#1978=CARTESIAN_POINT('',(-0.0364780889451504,0.0409600981324911,0.005));
#1979=CARTESIAN_POINT('',(0.0335219110548497,0.0609600981324911,0.005));
#1980=CARTESIAN_POINT('',(0.0135219110548496,0.0609600981324911,0.005));
#1981=CARTESIAN_POINT('',(0.0535219110548496,0.0609600981324911,0.005));
#1982=CARTESIAN_POINT('',(0.0535219110548496,0.0409600981324911,0.005));
#1983=CARTESIAN_POINT('',(0.0535219110548496,0.0209600981324911,0.005));
#1984=CARTESIAN_POINT('',(0.0335219110548497,0.0209600981324911,0.005));
#1985=CARTESIAN_POINT('',(0.0135219110548496,0.0209600981324911,0.005));
#1986=CARTESIAN_POINT('',(0.0135219110548496,0.0409600981324911,0.005));
#1987=CARTESIAN_POINT('',(0.0835219110548496,0.0609600981324911,0.005));
#1988=CARTESIAN_POINT('',(0.0635219110548496,0.0609600981324911,0.005));
#1989=CARTESIAN_POINT('',(0.10352191105485,0.0609600981324911,0.005));
#1990=CARTESIAN_POINT('',(0.10352191105485,0.0409600981324911,0.005));
#1991=CARTESIAN_POINT('',(0.10352191105485,0.0209600981324911,0.005));
#1992=CARTESIAN_POINT('',(0.0835219110548496,0.0209600981324911,0.005));
#1993=CARTESIAN_POINT('',(0.0635219110548496,0.0209600981324911,0.005));
#1994=CARTESIAN_POINT('',(0.0635219110548496,0.0409600981324911,0.005));
#1995=CARTESIAN_POINT('',(-0.0664780889451504,0.0109600981324911,0.005));
#1996=CARTESIAN_POINT('',(-0.0864780889451504,0.0109600981324911,0.005));
#1997=CARTESIAN_POINT('',(-0.0464780889451504,0.0109600981324911,0.005));
#1998=CARTESIAN_POINT('',(-0.0464780889451504,-0.00903990186750889,0.005));
#1999=CARTESIAN_POINT('',(-0.0464780889451504,-0.0290399018675089,0.005));
#2000=CARTESIAN_POINT('',(-0.0664780889451504,-0.0290399018675089,0.005));
#2001=CARTESIAN_POINT('',(-0.0864780889451504,-0.0290399018675089,0.005));
#2002=CARTESIAN_POINT('',(-0.0864780889451504,-0.00903990186750889,0.005));
#2003=CARTESIAN_POINT('',(-0.0164780889451504,0.0109600981324911,0.005));
#2004=CARTESIAN_POINT('',(-0.0364780889451504,0.0109600981324911,0.005));
#2005=CARTESIAN_POINT('',(0.00352191105484963,0.0109600981324911,0.005));
#2006=CARTESIAN_POINT('',(0.00352191105484963,-0.00903990186750889,0.005));
#2007=CARTESIAN_POINT('',(0.00352191105484962,-0.0290399018675089,0.005));
#2008=CARTESIAN_POINT('',(-0.0164780889451504,-0.0290399018675089,0.005));
#2009=CARTESIAN_POINT('',(-0.0364780889451504,-0.0290399018675089,0.005));
#2010=CARTESIAN_POINT('',(-0.0364780889451504,-0.00903990186750889,0.005));
#2011=CARTESIAN_POINT('',(0.0335219110548497,0.0109600981324911,0.005));
#2012=CARTESIAN_POINT('',(0.0135219110548496,0.0109600981324911,0.005));
#2013=CARTESIAN_POINT('',(0.0535219110548496,0.0109600981324911,0.005));
#2014=CARTESIAN_POINT('',(0.0535219110548496,-0.00903990186750889,0.005));
#2015=CARTESIAN_POINT('',(0.0535219110548496,-0.0290399018675089,0.005));
#2016=CARTESIAN_POINT('',(0.0335219110548497,-0.0290399018675089,0.005));
#2017=CARTESIAN_POINT('',(0.0135219110548496,-0.0290399018675089,0.005));
#2018=CARTESIAN_POINT('',(0.0135219110548496,-0.00903990186750889,0.005));
#2019=CARTESIAN_POINT('',(0.0835219110548496,0.0109600981324911,0.005));
#2020=CARTESIAN_POINT('',(0.0635219110548496,0.0109600981324911,0.005));
#2021=CARTESIAN_POINT('',(0.10352191105485,0.0109600981324911,0.005));
#2022=CARTESIAN_POINT('',(0.10352191105485,-0.00903990186750889,0.005));
#2023=CARTESIAN_POINT('',(0.10352191105485,-0.0290399018675089,0.005));
#2024=CARTESIAN_POINT('',(0.0835219110548496,-0.0290399018675089,0.005));
#2025=CARTESIAN_POINT('',(0.0635219110548496,-0.0290399018675089,0.005));
#2026=CARTESIAN_POINT('',(0.0635219110548496,-0.00903990186750889,0.005));
#2027=CARTESIAN_POINT('',(0.00852191105484963,0.0759600981324911,0.005));
#2028=CARTESIAN_POINT('',(-0.10147808894515,0.0759600981324911,0.005));
#2029=CARTESIAN_POINT('',(0.11852191105485,0.0759600981324911,0.005));
#2030=CARTESIAN_POINT('',(-0.10147808894515,0.0159600981324911,0.005));
#2031=CARTESIAN_POINT('',(-0.10147808894515,-0.0440399018675089,0.005));
#2032=CARTESIAN_POINT('',(0.00852191105484963,-0.0440399018675089,0.005));
#2033=CARTESIAN_POINT('',(0.11852191105485,-0.0440399018675089,0.005));
#2034=CARTESIAN_POINT('',(0.11852191105485,0.0159600981324911,0.005));
#2035=CARTESIAN_POINT('',(0.11252191105485,0.0159600981324911,0.005));
#2036=CARTESIAN_POINT('',(0.11252191105485,0.0189600981324911,0.005));
#2037=CARTESIAN_POINT('',(0.11252191105485,0.0129600981324911,0.005));
#2038=CARTESIAN_POINT('',(0.11402191105485,0.0189600981324911,0.005));
#2039=CARTESIAN_POINT('',(0.11552191105485,0.0189600981324911,0.005));
#2040=CARTESIAN_POINT('',(0.11552191105485,0.0159600981324911,0.005));
#2041=CARTESIAN_POINT('',(0.11552191105485,0.0129600981324911,0.005));
#2042=CARTESIAN_POINT('',(0.11402191105485,0.0129600981324911,0.005));
#2043=CARTESIAN_POINT('',(-0.0984780889451504,0.0159600981324911,0.005));
#2044=CARTESIAN_POINT('',(-0.0984780889451504,0.0189600981324911,0.005));
#2045=CARTESIAN_POINT('',(-0.0984780889451504,0.0129600981324911,0.005));
#2046=CARTESIAN_POINT('',(-0.0969780889451504,0.0189600981324911,0.005));
#2047=CARTESIAN_POINT('',(-0.0954780889451504,0.0189600981324911,0.005));
#2048=CARTESIAN_POINT('',(-0.0954780889451504,0.0159600981324911,0.005));
#2049=CARTESIAN_POINT('',(-0.0954780889451504,0.0129600981324911,0.005));
#2050=CARTESIAN_POINT('',(-0.0969780889451504,0.0129600981324911,0.005));
#2051=CARTESIAN_POINT('',(0.0835219110548496,0.0109600981324911,0.005));
#2052=CARTESIAN_POINT('',(0.0885219110548497,0.0109600981324911,0.002));
#2053=CARTESIAN_POINT('',(0.0885219110548497,0.0109600981324911,0.002));
#2054=CARTESIAN_POINT('',(0.0885219110548497,0.0109600981324911,0.));
#2055=CARTESIAN_POINT('',(0.0960219110548496,0.0109600981324911,0.002));
#2056=CARTESIAN_POINT('',(0.10352191105485,0.0109600981324911,0.002));
#2057=CARTESIAN_POINT('',(0.10352191105485,0.0109600981324911,0.005));
#2058=CARTESIAN_POINT('',(0.0635219110548496,0.0109600981324911,0.005));
#2059=CARTESIAN_POINT('',(0.0635219110548496,0.0109600981324911,0.002));
#2060=CARTESIAN_POINT('',(0.0710219110548497,0.0109600981324911,0.002));
#2061=CARTESIAN_POINT('',(0.0785219110548496,0.0109600981324911,0.002));
#2062=CARTESIAN_POINT('',(0.0785219110548496,0.0109600981324911,0.002));
#2063=CARTESIAN_POINT('',(0.0785219110548496,0.0109600981324911,0.));
#2064=CARTESIAN_POINT('',(0.0835219110548496,0.0109600981324911,0.));
#2065=CARTESIAN_POINT('',(0.0335219110548497,0.0109600981324911,0.005));
#2066=CARTESIAN_POINT('',(0.0385219110548497,0.0109600981324911,0.002));
#2067=CARTESIAN_POINT('',(0.0385219110548497,0.0109600981324911,0.002));
#2068=CARTESIAN_POINT('',(0.0385219110548497,0.0109600981324911,0.));
#2069=CARTESIAN_POINT('',(0.0460219110548496,0.0109600981324911,0.002));
#2070=CARTESIAN_POINT('',(0.0535219110548496,0.0109600981324911,0.002));
#2071=CARTESIAN_POINT('',(0.0535219110548496,0.0109600981324911,0.005));
#2072=CARTESIAN_POINT('',(0.0135219110548496,0.0109600981324911,0.005));
#2073=CARTESIAN_POINT('',(0.0135219110548496,0.0109600981324911,0.002));
#2074=CARTESIAN_POINT('',(0.0210219110548496,0.0109600981324911,0.002));
#2075=CARTESIAN_POINT('',(0.0285219110548496,0.0109600981324911,0.002));
#2076=CARTESIAN_POINT('',(0.0285219110548496,0.0109600981324911,0.002));
#2077=CARTESIAN_POINT('',(0.0285219110548496,0.0109600981324911,0.));
#2078=CARTESIAN_POINT('',(0.0335219110548497,0.0109600981324911,0.));
#2079=CARTESIAN_POINT('',(-0.0164780889451504,0.0109600981324911,0.005));
#2080=CARTESIAN_POINT('',(-0.0114780889451504,0.0109600981324911,0.002));
#2081=CARTESIAN_POINT('',(-0.0114780889451504,0.0109600981324911,0.002));
#2082=CARTESIAN_POINT('',(-0.0114780889451504,0.0109600981324911,0.));
#2083=CARTESIAN_POINT('',(-0.00397808894515037,0.0109600981324911,0.002));
#2084=CARTESIAN_POINT('',(0.00352191105484963,0.0109600981324911,0.002));
#2085=CARTESIAN_POINT('',(0.00352191105484963,0.0109600981324911,0.005));
#2086=CARTESIAN_POINT('',(-0.0364780889451504,0.0109600981324911,0.005));
#2087=CARTESIAN_POINT('',(-0.0364780889451504,0.0109600981324911,0.002));
#2088=CARTESIAN_POINT('',(-0.0289780889451504,0.0109600981324911,0.002));
#2089=CARTESIAN_POINT('',(-0.0214780889451504,0.0109600981324911,0.002));
#2090=CARTESIAN_POINT('',(-0.0214780889451504,0.0109600981324911,0.002));
#2091=CARTESIAN_POINT('',(-0.0214780889451504,0.0109600981324911,0.));
#2092=CARTESIAN_POINT('',(-0.0164780889451504,0.0109600981324911,0.));
#2093=CARTESIAN_POINT('',(-0.0664780889451504,0.0109600981324911,0.005));
#2094=CARTESIAN_POINT('',(-0.0614780889451504,0.0109600981324911,0.002));
#2095=CARTESIAN_POINT('',(-0.0614780889451504,0.0109600981324911,0.002));
#2096=CARTESIAN_POINT('',(-0.0614780889451504,0.0109600981324911,0.));
#2097=CARTESIAN_POINT('',(-0.0539780889451504,0.0109600981324911,0.002));
#2098=CARTESIAN_POINT('',(-0.0464780889451504,0.0109600981324911,0.002));
#2099=CARTESIAN_POINT('',(-0.0464780889451504,0.0109600981324911,0.005));
#2100=CARTESIAN_POINT('',(-0.0864780889451504,0.0109600981324911,0.005));
#2101=CARTESIAN_POINT('',(-0.0864780889451504,0.0109600981324911,0.002));
#2102=CARTESIAN_POINT('',(-0.0789780889451504,0.0109600981324911,0.002));
#2103=CARTESIAN_POINT('',(-0.0714780889451504,0.0109600981324911,0.002));
#2104=CARTESIAN_POINT('',(-0.0714780889451504,0.0109600981324911,0.002));
#2105=CARTESIAN_POINT('',(-0.0714780889451504,0.0109600981324911,0.));
#2106=CARTESIAN_POINT('',(-0.0664780889451504,0.0109600981324911,0.));
#2107=CARTESIAN_POINT('',(0.0835219110548496,0.0609600981324911,0.005));
#2108=CARTESIAN_POINT('',(0.0885219110548497,0.0609600981324911,0.002));
#2109=CARTESIAN_POINT('',(0.0885219110548497,0.0609600981324911,0.002));
#2110=CARTESIAN_POINT('',(0.0885219110548497,0.0609600981324911,0.));
#2111=CARTESIAN_POINT('',(0.0960219110548496,0.0609600981324911,0.002));
#2112=CARTESIAN_POINT('',(0.10352191105485,0.0609600981324911,0.002));
#2113=CARTESIAN_POINT('',(0.10352191105485,0.0609600981324911,0.005));
#2114=CARTESIAN_POINT('',(0.0635219110548496,0.0609600981324911,0.005));
#2115=CARTESIAN_POINT('',(0.0635219110548496,0.0609600981324911,0.002));
#2116=CARTESIAN_POINT('',(0.0710219110548497,0.0609600981324911,0.002));
#2117=CARTESIAN_POINT('',(0.0785219110548496,0.0609600981324911,0.002));
#2118=CARTESIAN_POINT('',(0.0785219110548496,0.0609600981324911,0.002));
#2119=CARTESIAN_POINT('',(0.0785219110548496,0.0609600981324911,0.));
#2120=CARTESIAN_POINT('',(0.0835219110548496,0.0609600981324911,0.));
#2121=CARTESIAN_POINT('',(0.0335219110548497,0.0609600981324911,0.005));
#2122=CARTESIAN_POINT('',(0.0385219110548497,0.0609600981324911,0.002));
#2123=CARTESIAN_POINT('',(0.0385219110548497,0.0609600981324911,0.002));
#2124=CARTESIAN_POINT('',(0.0385219110548497,0.0609600981324911,0.));
#2125=CARTESIAN_POINT('',(0.0460219110548496,0.0609600981324911,0.002));
#2126=CARTESIAN_POINT('',(0.0535219110548496,0.0609600981324911,0.002));
#2127=CARTESIAN_POINT('',(0.0535219110548496,0.0609600981324911,0.005));
#2128=CARTESIAN_POINT('',(0.0135219110548496,0.0609600981324911,0.005));
#2129=CARTESIAN_POINT('',(0.0135219110548496,0.0609600981324911,0.002));
#2130=CARTESIAN_POINT('',(0.0210219110548496,0.0609600981324911,0.002));
#2131=CARTESIAN_POINT('',(0.0285219110548496,0.0609600981324911,0.002));
#2132=CARTESIAN_POINT('',(0.0285219110548496,0.0609600981324911,0.002));
#2133=CARTESIAN_POINT('',(0.0285219110548496,0.0609600981324911,0.));
#2134=CARTESIAN_POINT('',(0.0335219110548497,0.0609600981324911,0.));
#2135=CARTESIAN_POINT('',(-0.0164780889451504,0.0609600981324911,0.005));
#2136=CARTESIAN_POINT('',(-0.0114780889451504,0.0609600981324911,0.002));
#2137=CARTESIAN_POINT('',(-0.0114780889451504,0.0609600981324911,0.002));
#2138=CARTESIAN_POINT('',(-0.0114780889451504,0.0609600981324911,0.));
#2139=CARTESIAN_POINT('',(-0.00397808894515038,0.0609600981324911,0.002));
#2140=CARTESIAN_POINT('',(0.00352191105484963,0.0609600981324911,0.002));
#2141=CARTESIAN_POINT('',(0.00352191105484963,0.0609600981324911,0.005));
#2142=CARTESIAN_POINT('',(-0.0364780889451504,0.0609600981324911,0.005));
#2143=CARTESIAN_POINT('',(-0.0364780889451504,0.0609600981324911,0.002));
#2144=CARTESIAN_POINT('',(-0.0289780889451504,0.0609600981324911,0.002));
#2145=CARTESIAN_POINT('',(-0.0214780889451504,0.0609600981324911,0.002));
#2146=CARTESIAN_POINT('',(-0.0214780889451504,0.0609600981324911,0.002));
#2147=CARTESIAN_POINT('',(-0.0214780889451504,0.0609600981324911,0.));
#2148=CARTESIAN_POINT('',(-0.0164780889451504,0.0609600981324911,0.));
#2149=CARTESIAN_POINT('',(-0.0664780889451504,0.0609600981324911,0.005));
#2150=CARTESIAN_POINT('',(-0.0614780889451504,0.0609600981324911,0.002));
#2151=CARTESIAN_POINT('',(-0.0614780889451504,0.0609600981324911,0.002));
#2152=CARTESIAN_POINT('',(-0.0614780889451504,0.0609600981324911,0.));
#2153=CARTESIAN_POINT('',(-0.0539780889451504,0.0609600981324911,0.002));
#2154=CARTESIAN_POINT('',(-0.0464780889451504,0.0609600981324911,0.002));
#2155=CARTESIAN_POINT('',(-0.0464780889451504,0.0609600981324911,0.005));
#2156=CARTESIAN_POINT('',(-0.0864780889451504,0.0609600981324911,0.005));
#2157=CARTESIAN_POINT('',(-0.0864780889451504,0.0609600981324911,0.002));
#2158=CARTESIAN_POINT('',(-0.0789780889451504,0.0609600981324911,0.002));
#2159=CARTESIAN_POINT('',(-0.0714780889451504,0.0609600981324911,0.002));
#2160=CARTESIAN_POINT('',(-0.0714780889451504,0.0609600981324911,0.002));
#2161=CARTESIAN_POINT('',(-0.0714780889451504,0.0609600981324911,0.));
#2162=CARTESIAN_POINT('',(-0.0664780889451504,0.0609600981324911,0.));
#2163=CARTESIAN_POINT('',(0.00852191105484963,0.0759600981324911,0.005));
#2164=CARTESIAN_POINT('',(0.00852191105484963,0.0759600981324911,0.001));
#2165=CARTESIAN_POINT('',(-0.10147808894515,0.0759600981324911,0.001));
#2166=CARTESIAN_POINT('',(0.11852191105485,0.0759600981324911,0.001));
#2167=CARTESIAN_POINT('',(-0.10147808894515,0.0759600981324911,0.005));
#2168=CARTESIAN_POINT('',(0.11852191105485,0.0759600981324911,0.005));
#2169=CARTESIAN_POINT('',(-0.10147808894515,0.0159600981324911,0.005));
#2170=CARTESIAN_POINT('',(-0.10147808894515,0.0159600981324911,0.001));
#2171=CARTESIAN_POINT('',(-0.10147808894515,-0.0440399018675089,0.001));
#2172=CARTESIAN_POINT('',(-0.10147808894515,-0.0440399018675089,0.005));
#2173=CARTESIAN_POINT('',(0.00852191105484963,-0.0440399018675089,0.005));
#2174=CARTESIAN_POINT('',(0.00852191105484963,-0.0440399018675089,0.001));
#2175=CARTESIAN_POINT('',(0.11852191105485,-0.0440399018675089,0.001));
#2176=CARTESIAN_POINT('',(0.11852191105485,-0.0440399018675089,0.005));
#2177=CARTESIAN_POINT('',(0.10352191105485,-0.00903990186750889,0.005));
#2178=CARTESIAN_POINT('',(0.10352191105485,-0.00903990186750889,0.002));
#2179=CARTESIAN_POINT('',(0.10352191105485,-0.0290399018675089,0.002));
#2180=CARTESIAN_POINT('',(0.10352191105485,-0.0290399018675089,0.005));
#2181=CARTESIAN_POINT('',(0.0835219110548496,-0.0290399018675089,0.005));
#2182=CARTESIAN_POINT('',(0.0835219110548496,-0.0290399018675089,0.002));
#2183=CARTESIAN_POINT('',(0.0635219110548496,-0.0290399018675089,0.002));
#2184=CARTESIAN_POINT('',(0.0635219110548496,-0.0290399018675089,0.005));
#2185=CARTESIAN_POINT('',(0.0535219110548496,-0.00903990186750889,0.005));
#2186=CARTESIAN_POINT('',(0.0535219110548496,-0.00903990186750889,0.002));
#2187=CARTESIAN_POINT('',(0.0535219110548496,-0.0290399018675089,0.002));
#2188=CARTESIAN_POINT('',(0.0535219110548496,-0.0290399018675089,0.005));
#2189=CARTESIAN_POINT('',(0.0335219110548497,-0.0290399018675089,0.005));
#2190=CARTESIAN_POINT('',(0.0335219110548497,-0.0290399018675089,0.002));
#2191=CARTESIAN_POINT('',(0.0135219110548496,-0.0290399018675089,0.002));
#2192=CARTESIAN_POINT('',(0.0135219110548496,-0.0290399018675089,0.005));
#2193=CARTESIAN_POINT('',(0.00352191105484963,-0.00903990186750889,0.005));
#2194=CARTESIAN_POINT('',(0.00352191105484963,-0.00903990186750889,0.002));
#2195=CARTESIAN_POINT('',(0.00352191105484962,-0.0290399018675089,0.002));
#2196=CARTESIAN_POINT('',(0.00352191105484962,-0.0290399018675089,0.005));
#2197=CARTESIAN_POINT('',(-0.0164780889451504,-0.0290399018675089,0.005));
#2198=CARTESIAN_POINT('',(-0.0164780889451504,-0.0290399018675089,0.002));
#2199=CARTESIAN_POINT('',(-0.0364780889451504,-0.0290399018675089,0.002));
#2200=CARTESIAN_POINT('',(-0.0364780889451504,-0.0290399018675089,0.005));
#2201=CARTESIAN_POINT('',(-0.0464780889451504,-0.00903990186750889,0.005));
#2202=CARTESIAN_POINT('',(-0.0464780889451504,-0.00903990186750889,0.002));
#2203=CARTESIAN_POINT('',(-0.0464780889451504,-0.0290399018675089,0.002));
#2204=CARTESIAN_POINT('',(-0.0464780889451504,-0.0290399018675089,0.005));
#2205=CARTESIAN_POINT('',(-0.0664780889451504,-0.0290399018675089,0.005));
#2206=CARTESIAN_POINT('',(-0.0664780889451504,-0.0290399018675089,0.002));
#2207=CARTESIAN_POINT('',(-0.0864780889451504,-0.0290399018675089,0.002));
#2208=CARTESIAN_POINT('',(-0.0864780889451504,-0.0290399018675089,0.005));
#2209=CARTESIAN_POINT('',(0.10352191105485,0.0409600981324911,0.005));
#2210=CARTESIAN_POINT('',(0.10352191105485,0.0409600981324911,0.002));
#2211=CARTESIAN_POINT('',(0.10352191105485,0.0209600981324911,0.002));
#2212=CARTESIAN_POINT('',(0.10352191105485,0.0209600981324911,0.005));
#2213=CARTESIAN_POINT('',(0.0835219110548496,0.0209600981324911,0.005));
#2214=CARTESIAN_POINT('',(0.0835219110548496,0.0209600981324911,0.002));
#2215=CARTESIAN_POINT('',(0.0635219110548496,0.0209600981324911,0.002));
#2216=CARTESIAN_POINT('',(0.0635219110548496,0.0209600981324911,0.005));
#2217=CARTESIAN_POINT('',(0.0535219110548496,0.0409600981324911,0.005));
#2218=CARTESIAN_POINT('',(0.0535219110548496,0.0409600981324911,0.002));
#2219=CARTESIAN_POINT('',(0.0535219110548496,0.0209600981324911,0.002));
#2220=CARTESIAN_POINT('',(0.0535219110548496,0.0209600981324911,0.005));
#2221=CARTESIAN_POINT('',(0.0335219110548497,0.0209600981324911,0.005));
#2222=CARTESIAN_POINT('',(0.0335219110548497,0.0209600981324911,0.002));
#2223=CARTESIAN_POINT('',(0.0135219110548496,0.0209600981324911,0.002));
#2224=CARTESIAN_POINT('',(0.0135219110548496,0.0209600981324911,0.005));
#2225=CARTESIAN_POINT('',(0.00352191105484963,0.0409600981324911,0.005));
#2226=CARTESIAN_POINT('',(0.00352191105484963,0.0409600981324911,0.002));
#2227=CARTESIAN_POINT('',(0.00352191105484963,0.0209600981324911,0.002));
#2228=CARTESIAN_POINT('',(0.00352191105484963,0.0209600981324911,0.005));
#2229=CARTESIAN_POINT('',(-0.0164780889451504,0.0209600981324911,0.005));
#2230=CARTESIAN_POINT('',(-0.0164780889451504,0.0209600981324911,0.002));
#2231=CARTESIAN_POINT('',(-0.0364780889451504,0.0209600981324911,0.002));
#2232=CARTESIAN_POINT('',(-0.0364780889451504,0.0209600981324911,0.005));
#2233=CARTESIAN_POINT('',(-0.0464780889451504,0.0409600981324911,0.005));
#2234=CARTESIAN_POINT('',(-0.0464780889451504,0.0409600981324911,0.002));
#2235=CARTESIAN_POINT('',(-0.0464780889451504,0.0209600981324911,0.002));
#2236=CARTESIAN_POINT('',(-0.0464780889451504,0.0209600981324911,0.005));
#2237=CARTESIAN_POINT('',(-0.0664780889451504,0.0209600981324911,0.005));
#2238=CARTESIAN_POINT('',(-0.0664780889451504,0.0209600981324911,0.002));
#2239=CARTESIAN_POINT('',(-0.0864780889451504,0.0209600981324911,0.002));
#2240=CARTESIAN_POINT('',(-0.0864780889451504,0.0209600981324911,0.005));
#2241=CARTESIAN_POINT('',(0.0635219110548496,-0.00903990186750889,0.005));
#2242=CARTESIAN_POINT('',(0.0635219110548496,-0.00903990186750889,0.002));
#2243=CARTESIAN_POINT('',(0.0135219110548496,-0.00903990186750889,0.005));
#2244=CARTESIAN_POINT('',(0.0135219110548496,-0.00903990186750889,0.002));
#2245=CARTESIAN_POINT('',(-0.0364780889451504,-0.00903990186750889,0.005));
#2246=CARTESIAN_POINT('',(-0.0364780889451504,-0.00903990186750889,0.002));
#2247=CARTESIAN_POINT('',(-0.0864780889451504,-0.00903990186750889,0.005));
#2248=CARTESIAN_POINT('',(-0.0864780889451504,-0.00903990186750889,0.002));
#2249=CARTESIAN_POINT('',(0.0635219110548496,0.0409600981324911,0.005));
#2250=CARTESIAN_POINT('',(0.0635219110548496,0.0409600981324911,0.002));
#2251=CARTESIAN_POINT('',(0.0135219110548496,0.0409600981324911,0.005));
#2252=CARTESIAN_POINT('',(0.0135219110548496,0.0409600981324911,0.002));
#2253=CARTESIAN_POINT('',(-0.0364780889451504,0.0409600981324911,0.005));
#2254=CARTESIAN_POINT('',(-0.0364780889451504,0.0409600981324911,0.002));
#2255=CARTESIAN_POINT('',(-0.0864780889451504,0.0409600981324911,0.005));
#2256=CARTESIAN_POINT('',(-0.0864780889451504,0.0409600981324911,0.002));
#2257=CARTESIAN_POINT('',(0.11852191105485,0.0159600981324911,0.005));
#2258=CARTESIAN_POINT('',(0.11852191105485,0.0159600981324911,0.001));
#2259=CARTESIAN_POINT('',(0.00852191105484963,0.0159600981324911,0.));
#2260=CARTESIAN_POINT('',(-0.00152808894515036,0.0689100981324911,0.));
#2261=CARTESIAN_POINT('',(-0.00152808894515036,0.0639100981324911,0.));
#2262=CARTESIAN_POINT('',(0.00847191105484965,0.0639100981324911,0.));
#2263=CARTESIAN_POINT('',(0.0184719110548496,0.0639100981324911,0.));
#2264=CARTESIAN_POINT('',(0.0184719110548496,0.0689100981324911,0.));
#2265=CARTESIAN_POINT('',(0.0184719110548496,0.0739100981324911,0.));
#2266=CARTESIAN_POINT('',(0.00852191105484963,0.0739100981324911,0.));
#2267=CARTESIAN_POINT('',(0.11647191105485,0.0739100981324911,0.));
#2268=CARTESIAN_POINT('',(0.11647191105485,0.0159600981324911,0.));
#2269=CARTESIAN_POINT('',(0.11647191105485,-0.0419899018675089,0.));
#2270=CARTESIAN_POINT('',(0.00852191105484963,-0.0419899018675089,0.));
#2271=CARTESIAN_POINT('',(-0.0994280889451504,-0.0419899018675089,0.));
#2272=CARTESIAN_POINT('',(-0.0994280889451504,0.0159600981324911,0.));
#2273=CARTESIAN_POINT('',(0.0835219110548496,0.0109600981324911,0.));
#2274=CARTESIAN_POINT('',(0.0335219110548497,0.0109600981324911,0.));
#2275=CARTESIAN_POINT('',(-0.0164780889451504,0.0109600981324911,0.));
#2276=CARTESIAN_POINT('',(-0.0664780889451504,0.0109600981324911,0.));
#2277=CARTESIAN_POINT('',(0.0835219110548496,0.0609600981324911,0.));
#2278=CARTESIAN_POINT('',(0.0335219110548497,0.0609600981324911,0.));
#2279=CARTESIAN_POINT('',(-0.0164780889451504,0.0609600981324911,0.));
#2280=CARTESIAN_POINT('',(-0.0664780889451504,0.0609600981324911,0.));
#2281=CARTESIAN_POINT('',(-0.0664780889451504,0.0609600981324911,0.002));
#2282=CARTESIAN_POINT('',(-0.0664780889451504,0.0609600981324911,0.002));
#2283=CARTESIAN_POINT('',(0.00852191105484963,0.0159600981324911,0.002));
#2284=CARTESIAN_POINT('',(-0.0164780889451504,0.0609600981324911,0.002));
#2285=CARTESIAN_POINT('',(-0.0164780889451504,0.0609600981324911,0.002));
#2286=CARTESIAN_POINT('',(0.00852191105484963,0.0159600981324911,0.002));
#2287=CARTESIAN_POINT('',(0.0335219110548497,0.0609600981324911,0.002));
#2288=CARTESIAN_POINT('',(0.0335219110548497,0.0609600981324911,0.002));
#2289=CARTESIAN_POINT('',(0.00852191105484963,0.0159600981324911,0.002));
#2290=CARTESIAN_POINT('',(0.0835219110548496,0.0609600981324911,0.002));
#2291=CARTESIAN_POINT('',(0.0835219110548496,0.0609600981324911,0.002));
#2292=CARTESIAN_POINT('',(0.00852191105484963,0.0159600981324911,0.002));
#2293=CARTESIAN_POINT('',(-0.0664780889451504,0.0109600981324911,0.002));
#2294=CARTESIAN_POINT('',(-0.0664780889451504,0.0109600981324911,0.002));
#2295=CARTESIAN_POINT('',(0.00852191105484963,0.0159600981324911,0.002));
#2296=CARTESIAN_POINT('',(-0.0164780889451504,0.0109600981324911,0.002));
#2297=CARTESIAN_POINT('',(-0.0164780889451504,0.0109600981324911,0.002));
#2298=CARTESIAN_POINT('',(0.00852191105484963,0.0159600981324911,0.002));
#2299=CARTESIAN_POINT('',(0.0335219110548497,0.0109600981324911,0.002));
#2300=CARTESIAN_POINT('',(0.0335219110548497,0.0109600981324911,0.002));
#2301=CARTESIAN_POINT('',(0.00852191105484963,0.0159600981324911,0.002));
#2302=CARTESIAN_POINT('',(0.0835219110548496,0.0109600981324911,0.002));
#2303=CARTESIAN_POINT('',(0.0835219110548496,0.0109600981324911,0.002));
#2304=CARTESIAN_POINT('',(0.00852191105484963,0.0159600981324911,0.002));
#2305=CARTESIAN_POINT('',(0.11402191105485,0.0189600981324911,0.001));
#2306=CARTESIAN_POINT('',(0.11252191105485,0.0189600981324911,0.001));
#2307=CARTESIAN_POINT('',(0.11252191105485,0.0189600981324911,0.001));
#2308=CARTESIAN_POINT('',(0.11402191105485,0.0189600981324911,0.001));
#2309=CARTESIAN_POINT('',(0.11552191105485,0.0189600981324911,0.001));
#2310=CARTESIAN_POINT('',(0.11552191105485,0.0189600981324911,0.001));
#2311=CARTESIAN_POINT('',(0.11252191105485,0.0159600981324911,0.001));
#2312=CARTESIAN_POINT('',(0.11252191105485,0.0129600981324911,0.001));
#2313=CARTESIAN_POINT('',(0.11252191105485,0.0129600981324911,0.001));
#2314=CARTESIAN_POINT('',(0.11252191105485,0.0159600981324911,0.001));
#2315=CARTESIAN_POINT('',(0.11402191105485,0.0129600981324911,0.001));
#2316=CARTESIAN_POINT('',(0.11552191105485,0.0129600981324911,0.001));
#2317=CARTESIAN_POINT('',(0.11552191105485,0.0129600981324911,0.001));
#2318=CARTESIAN_POINT('',(0.11402191105485,0.0129600981324911,0.001));
#2319=CARTESIAN_POINT('',(0.11552191105485,0.0159600981324911,0.001));
#2320=CARTESIAN_POINT('',(0.11552191105485,0.0159600981324911,0.001));
#2321=CARTESIAN_POINT('',(0.00852191105484963,0.0159600981324911,0.001));
#2322=CARTESIAN_POINT('',(-0.0969780889451504,0.0189600981324911,0.001));
#2323=CARTESIAN_POINT('',(-0.0984780889451504,0.0189600981324911,0.001));
#2324=CARTESIAN_POINT('',(-0.0984780889451504,0.0189600981324911,0.001));
#2325=CARTESIAN_POINT('',(-0.0969780889451504,0.0189600981324911,0.001));
#2326=CARTESIAN_POINT('',(-0.0954780889451504,0.0189600981324911,0.001));
#2327=CARTESIAN_POINT('',(-0.0954780889451504,0.0189600981324911,0.001));
#2328=CARTESIAN_POINT('',(-0.0984780889451504,0.0159600981324911,0.001));
#2329=CARTESIAN_POINT('',(-0.0984780889451504,0.0129600981324911,0.001));
#2330=CARTESIAN_POINT('',(-0.0984780889451504,0.0129600981324911,0.001));
#2331=CARTESIAN_POINT('',(-0.0984780889451504,0.0159600981324911,0.001));
#2332=CARTESIAN_POINT('',(-0.0969780889451504,0.0129600981324911,0.001));
#2333=CARTESIAN_POINT('',(-0.0954780889451504,0.0129600981324911,0.001));
#2334=CARTESIAN_POINT('',(-0.0954780889451504,0.0129600981324911,0.001));
#2335=CARTESIAN_POINT('',(-0.0969780889451504,0.0129600981324911,0.001));
#2336=CARTESIAN_POINT('',(-0.0954780889451504,0.0159600981324911,0.001));
#2337=CARTESIAN_POINT('',(-0.0954780889451504,0.0159600981324911,0.001));
#2338=CARTESIAN_POINT('',(0.00852191105484963,0.0159600981324911,0.001));
#2339=CARTESIAN_POINT('',(0.00852191105484963,-0.0419899018675089,0.001));
#2340=CARTESIAN_POINT('',(0.11647191105485,-0.0419899018675089,0.001));
#2341=CARTESIAN_POINT('',(0.11647191105485,-0.0419899018675089,0.001));
#2342=CARTESIAN_POINT('',(0.00852191105484963,-0.0419899018675089,0.001));
#2343=CARTESIAN_POINT('',(-0.0994280889451504,-0.0419899018675089,0.001));
#2344=CARTESIAN_POINT('',(-0.0994280889451504,-0.0419899018675089,0.001));
#2345=CARTESIAN_POINT('',(0.11647191105485,0.0159600981324911,0.001));
#2346=CARTESIAN_POINT('',(0.11647191105485,0.0739100981324911,0.001));
#2347=CARTESIAN_POINT('',(0.11647191105485,0.0739100981324911,0.001));
#2348=CARTESIAN_POINT('',(0.11647191105485,0.0159600981324911,0.001));
#2349=CARTESIAN_POINT('',(0.00852191105484963,0.0739100981324911,0.001));
#2350=CARTESIAN_POINT('',(0.0184719110548496,0.0739100981324911,0.001));
#2351=CARTESIAN_POINT('',(0.0184719110548496,0.0739100981324911,0.001));
#2352=CARTESIAN_POINT('',(0.00852191105484963,0.0739100981324911,0.001));
#2353=CARTESIAN_POINT('',(-0.0994280889451504,0.0159600981324911,0.001));
#2354=CARTESIAN_POINT('',(-0.0994280889451504,0.0159600981324911,0.001));
#2355=CARTESIAN_POINT('',(0.00852191105484963,0.0159600981324911,0.001));
#2356=CARTESIAN_POINT('',(0.0184719110548496,0.0689100981324911,0.001));
#2357=CARTESIAN_POINT('',(0.0184719110548496,0.0639100981324911,0.001));
#2358=CARTESIAN_POINT('',(0.00847191105484965,0.0639100981324911,0.001));
#2359=CARTESIAN_POINT('',(-0.00152808894515036,0.0639100981324911,0.001));
#2360=CARTESIAN_POINT('',(-0.00152808894515036,0.0689100981324911,0.001));
#2361=CARTESIAN_POINT('',(-0.00152808894515036,0.0689100981324911,0.001));
#2362=CARTESIAN_POINT('',(-0.00152808894515036,0.0639100981324911,0.001));
#2363=CARTESIAN_POINT('',(0.0184719110548496,0.0689100981324911,0.001));
#2364=CARTESIAN_POINT('',(0.0184719110548496,0.0639100981324911,0.001));
#2365=CARTESIAN_POINT('',(0.00847191105484965,0.0639100981324911,0.001));
#2366=MECHANICAL_DESIGN_GEOMETRIC_PRESENTATION_REPRESENTATION('',(#1483),
#2367);
#2367=(
GEOMETRIC_REPRESENTATION_CONTEXT(3)
GLOBAL_UNCERTAINTY_ASSIGNED_CONTEXT((#2368))
GLOBAL_UNIT_ASSIGNED_CONTEXT((#2371,#2370,#2369))
REPRESENTATION_CONTEXT('Part 1','TOP_LEVEL_ASSEMBLY_PART')
);
#2368=UNCERTAINTY_MEASURE_WITH_UNIT(LENGTH_MEASURE(1.E-8),#2371,
'DISTANCE_ACCURACY_VALUE','Maximum Tolerance applied to model');
#2369=(
NAMED_UNIT(*)
SI_UNIT($,.STERADIAN.)
SOLID_ANGLE_UNIT()
);
#2370=(
NAMED_UNIT(*)
PLANE_ANGLE_UNIT()
SI_UNIT($,.RADIAN.)
);
#2371=(
LENGTH_UNIT()
NAMED_UNIT(*)
SI_UNIT($,.METRE.)
);
#2372=PRODUCT_DEFINITION_SHAPE('','',#2373);
#2373=PRODUCT_DEFINITION('','',#2375,#2374);
#2374=PRODUCT_DEFINITION_CONTEXT('',#2381,'design');
#2375=PRODUCT_DEFINITION_FORMATION_WITH_SPECIFIED_SOURCE('','',#2377,
 .NOT_KNOWN.);
#2376=PRODUCT_RELATED_PRODUCT_CATEGORY('','',(#2377));
#2377=PRODUCT('Part 1','Part 1','Part 1',(#2379));
#2378=PRODUCT_CATEGORY('','');
#2379=PRODUCT_CONTEXT('',#2381,'mechanical');
#2380=APPLICATION_PROTOCOL_DEFINITION('international standard',
'ap242_managed_model_based_3d_engineering',2020,#2381);
#2381=APPLICATION_CONTEXT('managed model based 3d engineering');
ENDSEC;
END-ISO-10303-21;
