ISO-10303-21;
HEADER;
/* Generated by software containing ST-Developer
 * from STEP Tools, Inc. (www.steptools.com) 
 */
/* OPTION: using custom renumber hook */

FILE_DESCRIPTION(
/* description */ ('STEP AP242 Edition 2',
'CAx-IF Rec.Pracs.---Representation and Presentation of Product Manufa
cturing Information (PMI)---4.0---2014-10-13',
'CAx-IF Rec.Pracs.---3D Tessellated Geometry---0.4---2014-09-14','2;1',
'CAx-IF Rec.Pracs.---User Defined Attributes---1.5---2016-08-15'),
/* implementation_level */ '2;1');

FILE_NAME(
/* name */ 'tpupads - Part 1',
/* time_stamp */ '2026-09-19T05:37:54Z',
/* author */ (''),
/* organization */ (''),
/* preprocessor_version */ 'ST-DEVELOPER v20',
/* originating_system */ 'ONSHAPE BY PTC INC, 1.221',
/* authorisation */ '  ');

FILE_SCHEMA (('AP242_MANAGED_MODEL_BASED_3D_ENGINEERING_MIM_LF { 1 0 10303 442 3 1 4 }'));
ENDSEC;

DATA;
#10=SHAPE_REPRESENTATION_RELATIONSHIP('','',#193,#11);
#11=ADVANCED_BREP_SHAPE_REPRESENTATION('',(#191),#315);
#12=CYLINDRICAL_SURFACE('',#206,0.0175);
#13=CYLINDRICAL_SURFACE('',#210,0.005);
#14=CIRCLE('',#197,0.005);
#15=CIRCLE('',#198,0.005);
#16=CIRCLE('',#199,0.0175);
#17=CIRCLE('',#205,0.005);
#18=CIRCLE('',#207,0.0175);
#19=CIRCLE('',#209,0.005);
#20=ORIENTED_EDGE('',*,*,#68,.F.);
#21=ORIENTED_EDGE('',*,*,#69,.T.);
#22=ORIENTED_EDGE('',*,*,#70,.T.);
#23=ORIENTED_EDGE('',*,*,#71,.T.);
#24=ORIENTED_EDGE('',*,*,#72,.F.);
#25=ORIENTED_EDGE('',*,*,#73,.F.);
#26=ORIENTED_EDGE('',*,*,#74,.T.);
#27=ORIENTED_EDGE('',*,*,#75,.T.);
#28=ORIENTED_EDGE('',*,*,#76,.F.);
#29=ORIENTED_EDGE('',*,*,#70,.F.);
#30=ORIENTED_EDGE('',*,*,#77,.F.);
#31=ORIENTED_EDGE('',*,*,#78,.F.);
#32=ORIENTED_EDGE('',*,*,#79,.F.);
#33=ORIENTED_EDGE('',*,*,#80,.F.);
#34=ORIENTED_EDGE('',*,*,#81,.F.);
#35=ORIENTED_EDGE('',*,*,#73,.T.);
#36=ORIENTED_EDGE('',*,*,#82,.T.);
#37=ORIENTED_EDGE('',*,*,#83,.F.);
#38=ORIENTED_EDGE('',*,*,#74,.F.);
#39=ORIENTED_EDGE('',*,*,#81,.T.);
#40=ORIENTED_EDGE('',*,*,#84,.T.);
#41=ORIENTED_EDGE('',*,*,#85,.F.);
#42=ORIENTED_EDGE('',*,*,#75,.F.);
#43=ORIENTED_EDGE('',*,*,#83,.T.);
#44=ORIENTED_EDGE('',*,*,#86,.F.);
#45=ORIENTED_EDGE('',*,*,#71,.F.);
#46=ORIENTED_EDGE('',*,*,#76,.T.);
#47=ORIENTED_EDGE('',*,*,#85,.T.);
#48=ORIENTED_EDGE('',*,*,#80,.T.);
#49=ORIENTED_EDGE('',*,*,#87,.T.);
#50=ORIENTED_EDGE('',*,*,#68,.T.);
#51=ORIENTED_EDGE('',*,*,#86,.T.);
#52=ORIENTED_EDGE('',*,*,#84,.F.);
#53=ORIENTED_EDGE('',*,*,#82,.F.);
#54=ORIENTED_EDGE('',*,*,#78,.T.);
#55=ORIENTED_EDGE('',*,*,#88,.F.);
#56=ORIENTED_EDGE('',*,*,#89,.F.);
#57=ORIENTED_EDGE('',*,*,#90,.T.);
#58=ORIENTED_EDGE('',*,*,#91,.F.);
#59=ORIENTED_EDGE('',*,*,#89,.T.);
#60=ORIENTED_EDGE('',*,*,#79,.T.);
#61=ORIENTED_EDGE('',*,*,#72,.T.);
#62=ORIENTED_EDGE('',*,*,#90,.F.);
#63=ORIENTED_EDGE('',*,*,#91,.T.);
#64=ORIENTED_EDGE('',*,*,#88,.T.);
#65=ORIENTED_EDGE('',*,*,#77,.T.);
#66=ORIENTED_EDGE('',*,*,#69,.F.);
#67=ORIENTED_EDGE('',*,*,#87,.F.);
#68=EDGE_CURVE('',#92,#93,#108,.T.);
#69=EDGE_CURVE('',#92,#94,#109,.T.);
#70=EDGE_CURVE('',#94,#95,#110,.T.);
#71=EDGE_CURVE('',#95,#93,#111,.T.);
#72=EDGE_CURVE('',#96,#97,#14,.T.);
#73=EDGE_CURVE('',#98,#96,#112,.T.);
#74=EDGE_CURVE('',#98,#99,#113,.T.);
#75=EDGE_CURVE('',#99,#100,#114,.T.);
#76=EDGE_CURVE('',#95,#100,#115,.T.);
#77=EDGE_CURVE('',#101,#94,#15,.T.);
#78=EDGE_CURVE('',#97,#101,#16,.T.);
#79=EDGE_CURVE('',#102,#96,#116,.T.);
#80=EDGE_CURVE('',#103,#102,#117,.T.);
#81=EDGE_CURVE('',#98,#103,#118,.T.);
#82=EDGE_CURVE('',#103,#104,#119,.T.);
#83=EDGE_CURVE('',#99,#104,#120,.T.);
#84=EDGE_CURVE('',#104,#105,#121,.T.);
#85=EDGE_CURVE('',#100,#105,#122,.T.);
#86=EDGE_CURVE('',#93,#105,#123,.T.);
#87=EDGE_CURVE('',#102,#92,#17,.T.);
#88=EDGE_CURVE('',#106,#101,#124,.T.);
#89=EDGE_CURVE('',#107,#106,#18,.T.);
#90=EDGE_CURVE('',#107,#97,#125,.T.);
#91=EDGE_CURVE('',#107,#106,#19,.T.);
#92=VERTEX_POINT('',#266);
#93=VERTEX_POINT('',#267);
#94=VERTEX_POINT('',#269);
#95=VERTEX_POINT('',#271);
#96=VERTEX_POINT('',#275);
#97=VERTEX_POINT('',#276);
#98=VERTEX_POINT('',#278);
#99=VERTEX_POINT('',#280);
#100=VERTEX_POINT('',#282);
#101=VERTEX_POINT('',#285);
#102=VERTEX_POINT('',#289);
#103=VERTEX_POINT('',#291);
#104=VERTEX_POINT('',#295);
#105=VERTEX_POINT('',#299);
#106=VERTEX_POINT('',#307);
#107=VERTEX_POINT('',#309);
#108=LINE('',#265,#126);
#109=LINE('',#268,#127);
#110=LINE('',#270,#128);
#111=LINE('',#272,#129);
#112=LINE('',#277,#130);
#113=LINE('',#279,#131);
#114=LINE('',#281,#132);
#115=LINE('',#283,#133);
#116=LINE('',#288,#134);
#117=LINE('',#290,#135);
#118=LINE('',#292,#136);
#119=LINE('',#294,#137);
#120=LINE('',#296,#138);
#121=LINE('',#298,#139);
#122=LINE('',#300,#140);
#123=LINE('',#302,#141);
#124=LINE('',#306,#142);
#125=LINE('',#310,#143);
#126=VECTOR('',#215,1.);
#127=VECTOR('',#216,1.);
#128=VECTOR('',#217,1.);
#129=VECTOR('',#218,1.);
#130=VECTOR('',#223,1.);
#131=VECTOR('',#224,1.);
#132=VECTOR('',#225,1.);
#133=VECTOR('',#226,1.);
#134=VECTOR('',#233,1.);
#135=VECTOR('',#234,1.);
#136=VECTOR('',#235,1.);
#137=VECTOR('',#238,1.);
#138=VECTOR('',#239,1.);
#139=VECTOR('',#242,1.);
#140=VECTOR('',#243,1.);
#141=VECTOR('',#246,1.);
#142=VECTOR('',#253,1.);
#143=VECTOR('',#256,1.);
#144=EDGE_LOOP('',(#20,#21,#22,#23));
#145=EDGE_LOOP('',(#24,#25,#26,#27,#28,#29,#30,#31));
#146=EDGE_LOOP('',(#32,#33,#34,#35));
#147=EDGE_LOOP('',(#36,#37,#38,#39));
#148=EDGE_LOOP('',(#40,#41,#42,#43));
#149=EDGE_LOOP('',(#44,#45,#46,#47));
#150=EDGE_LOOP('',(#48,#49,#50,#51,#52,#53));
#151=EDGE_LOOP('',(#54,#55,#56,#57));
#152=EDGE_LOOP('',(#58,#59));
#153=EDGE_LOOP('',(#60,#61,#62,#63,#64,#65,#66,#67));
#154=FACE_BOUND('',#144,.T.);
#155=FACE_BOUND('',#145,.T.);
#156=FACE_BOUND('',#146,.T.);
#157=FACE_BOUND('',#147,.T.);
#158=FACE_BOUND('',#148,.T.);
#159=FACE_BOUND('',#149,.T.);
#160=FACE_BOUND('',#150,.T.);
#161=FACE_BOUND('',#151,.T.);
#162=FACE_BOUND('',#152,.T.);
#163=FACE_BOUND('',#153,.T.);
#164=PLANE('',#195);
#165=PLANE('',#196);
#166=PLANE('',#200);
#167=PLANE('',#201);
#168=PLANE('',#202);
#169=PLANE('',#203);
#170=PLANE('',#204);
#171=PLANE('',#208);
#172=ADVANCED_FACE('',(#154),#164,.T.);
#173=ADVANCED_FACE('',(#155),#165,.T.);
#174=ADVANCED_FACE('',(#156),#166,.T.);
#175=ADVANCED_FACE('',(#157),#167,.F.);
#176=ADVANCED_FACE('',(#158),#168,.F.);
#177=ADVANCED_FACE('',(#159),#169,.T.);
#178=ADVANCED_FACE('',(#160),#170,.F.);
#179=ADVANCED_FACE('',(#161),#12,.F.);
#180=ADVANCED_FACE('',(#162),#171,.T.);
#181=ADVANCED_FACE('',(#163),#13,.F.);
#182=CLOSED_SHELL('',(#172,#173,#174,#175,#176,#177,#178,#179,#180,#181));
#183=STYLED_ITEM('',(#184),#191);
#184=PRESENTATION_STYLE_ASSIGNMENT((#185));
#185=SURFACE_STYLE_USAGE(.BOTH.,#186);
#186=SURFACE_SIDE_STYLE('',(#187));
#187=SURFACE_STYLE_FILL_AREA(#188);
#188=FILL_AREA_STYLE('',(#189));
#189=FILL_AREA_STYLE_COLOUR('',#190);
#190=COLOUR_RGB('',0.447058823529412,0.243137254901961,0.);
#191=MANIFOLD_SOLID_BREP('Part 1',#182);
#192=SHAPE_DEFINITION_REPRESENTATION(#320,#193);
#193=SHAPE_REPRESENTATION('Part 1',(#194),#315);
#194=AXIS2_PLACEMENT_3D('',#263,#211,#212);
#195=AXIS2_PLACEMENT_3D('',#264,#213,#214);
#196=AXIS2_PLACEMENT_3D('',#273,#219,#220);
#197=AXIS2_PLACEMENT_3D('',#274,#221,#222);
#198=AXIS2_PLACEMENT_3D('',#284,#227,#228);
#199=AXIS2_PLACEMENT_3D('',#286,#229,#230);
#200=AXIS2_PLACEMENT_3D('',#287,#231,#232);
#201=AXIS2_PLACEMENT_3D('',#293,#236,#237);
#202=AXIS2_PLACEMENT_3D('',#297,#240,#241);
#203=AXIS2_PLACEMENT_3D('',#301,#244,#245);
#204=AXIS2_PLACEMENT_3D('',#303,#247,#248);
#205=AXIS2_PLACEMENT_3D('',#304,#249,#250);
#206=AXIS2_PLACEMENT_3D('',#305,#251,#252);
#207=AXIS2_PLACEMENT_3D('',#308,#254,#255);
#208=AXIS2_PLACEMENT_3D('',#311,#257,#258);
#209=AXIS2_PLACEMENT_3D('',#312,#259,#260);
#210=AXIS2_PLACEMENT_3D('',#313,#261,#262);
#211=DIRECTION('',(0.,0.,1.));
#212=DIRECTION('',(1.,0.,0.));
#213=DIRECTION('',(0.,1.,0.));
#214=DIRECTION('',(0.,0.,1.));
#215=DIRECTION('',(1.,0.,0.));
#216=DIRECTION('',(0.,0.,1.));
#217=DIRECTION('',(1.,0.,0.));
#218=DIRECTION('',(0.,0.,-1.));
#219=DIRECTION('',(0.,0.,1.));
#220=DIRECTION('',(1.,0.,0.));
#221=DIRECTION('',(0.,0.,1.));
#222=DIRECTION('',(1.,0.,0.));
#223=DIRECTION('',(1.,0.,0.));
#224=DIRECTION('',(0.,-1.,0.));
#225=DIRECTION('',(1.,0.,0.));
#226=DIRECTION('',(0.,-1.,0.));
#227=DIRECTION('',(0.,0.,1.));
#228=DIRECTION('',(1.,0.,0.));
#229=DIRECTION('',(0.,0.,1.));
#230=DIRECTION('',(1.,0.,0.));
#231=DIRECTION('',(0.,1.,0.));
#232=DIRECTION('',(0.,0.,1.));
#233=DIRECTION('',(0.,0.,1.));
#234=DIRECTION('',(1.,0.,0.));
#235=DIRECTION('',(0.,0.,-1.));
#236=DIRECTION('',(1.,0.,0.));
#237=DIRECTION('',(0.,0.,-1.));
#238=DIRECTION('',(0.,-1.,0.));
#239=DIRECTION('',(0.,0.,-1.));
#240=DIRECTION('',(0.,1.,0.));
#241=DIRECTION('',(0.,0.,1.));
#242=DIRECTION('',(1.,0.,0.));
#243=DIRECTION('',(0.,0.,-1.));
#244=DIRECTION('',(1.,0.,0.));
#245=DIRECTION('',(0.,0.,-1.));
#246=DIRECTION('',(0.,-1.,0.));
#247=DIRECTION('',(0.,0.,1.));
#248=DIRECTION('',(1.,0.,0.));
#249=DIRECTION('',(0.,0.,1.));
#250=DIRECTION('',(1.,0.,0.));
#251=DIRECTION('',(0.,0.,1.));
#252=DIRECTION('',(1.,0.,0.));
#253=DIRECTION('',(0.,0.,1.));
#254=DIRECTION('',(0.,0.,1.));
#255=DIRECTION('',(1.,0.,0.));
#256=DIRECTION('',(0.,0.,1.));
#257=DIRECTION('',(0.,0.,1.));
#258=DIRECTION('',(1.,0.,0.));
#259=DIRECTION('',(0.,0.,1.));
#260=DIRECTION('',(1.,0.,0.));
#261=DIRECTION('',(0.,0.,1.));
#262=DIRECTION('',(1.,0.,0.));
#263=CARTESIAN_POINT('',(0.,0.,0.));
#264=CARTESIAN_POINT('',(-0.0584103879332543,0.00738012880086899,0.002));
#265=CARTESIAN_POINT('',(-0.0584103879332543,0.00738012880086899,0.));
#266=CARTESIAN_POINT('',(-0.0534103879332542,0.00738012880086899,0.));
#267=CARTESIAN_POINT('',(-0.0384103879332542,0.00738012880086899,0.));
#268=CARTESIAN_POINT('',(-0.0534103879332542,0.00738012880086899,-0.023));
#269=CARTESIAN_POINT('',(-0.0534103879332542,0.00738012880086899,0.002));
#270=CARTESIAN_POINT('',(-0.0584103879332543,0.00738012880086899,0.002));
#271=CARTESIAN_POINT('',(-0.0384103879332542,0.00738012880086899,0.002));
#272=CARTESIAN_POINT('',(-0.0384103879332542,0.00738012880086899,0.002));
#273=CARTESIAN_POINT('',(-0.0584103879332543,-0.012619871199131,0.002));
#274=CARTESIAN_POINT('',(-0.0584103879332542,0.00738012880086899,0.002));
#275=CARTESIAN_POINT('',(-0.0634103879332543,0.00738012880086899,0.002));
#276=CARTESIAN_POINT('',(-0.0624336358049992,0.00441137880086902,0.002));
#277=CARTESIAN_POINT('',(-0.0584103879332543,0.00738012880086899,0.002));
#278=CARTESIAN_POINT('',(-0.0784103879332543,0.00738012880086899,0.002));
#279=CARTESIAN_POINT('',(-0.0784103879332543,-0.012619871199131,0.002));
#280=CARTESIAN_POINT('',(-0.0784103879332543,-0.032619871199131,0.002));
#281=CARTESIAN_POINT('',(-0.0584103879332543,-0.032619871199131,0.002));
#282=CARTESIAN_POINT('',(-0.0384103879332542,-0.032619871199131,0.002));
#283=CARTESIAN_POINT('',(-0.0384103879332542,-0.012619871199131,0.002));
#284=CARTESIAN_POINT('',(-0.0584103879332542,0.00738012880086899,0.002));
#285=CARTESIAN_POINT('',(-0.0543871400615093,0.00441137880086902,0.002));
#286=CARTESIAN_POINT('',(-0.0584103879332543,-0.012619871199131,0.002));
#287=CARTESIAN_POINT('',(-0.0584103879332543,0.00738012880086899,0.002));
#288=CARTESIAN_POINT('',(-0.0634103879332543,0.00738012880086899,-0.023));
#289=CARTESIAN_POINT('',(-0.0634103879332543,0.00738012880086899,0.));
#290=CARTESIAN_POINT('',(-0.0584103879332543,0.00738012880086899,0.));
#291=CARTESIAN_POINT('',(-0.0784103879332543,0.00738012880086899,0.));
#292=CARTESIAN_POINT('',(-0.0784103879332543,0.00738012880086899,0.002));
#293=CARTESIAN_POINT('',(-0.0784103879332543,-0.012619871199131,0.002));
#294=CARTESIAN_POINT('',(-0.0784103879332543,-0.012619871199131,0.));
#295=CARTESIAN_POINT('',(-0.0784103879332543,-0.032619871199131,0.));
#296=CARTESIAN_POINT('',(-0.0784103879332543,-0.032619871199131,0.002));
#297=CARTESIAN_POINT('',(-0.0584103879332543,-0.032619871199131,0.002));
#298=CARTESIAN_POINT('',(-0.0584103879332543,-0.032619871199131,0.));
#299=CARTESIAN_POINT('',(-0.0384103879332542,-0.032619871199131,0.));
#300=CARTESIAN_POINT('',(-0.0384103879332542,-0.032619871199131,0.002));
#301=CARTESIAN_POINT('',(-0.0384103879332542,-0.012619871199131,0.002));
#302=CARTESIAN_POINT('',(-0.0384103879332542,-0.012619871199131,0.));
#303=CARTESIAN_POINT('',(-0.0584103879332543,-0.012619871199131,0.));
#304=CARTESIAN_POINT('',(-0.0584103879332542,0.00738012880086899,0.));
#305=CARTESIAN_POINT('',(-0.0584103879332543,-0.012619871199131,0.001));
#306=CARTESIAN_POINT('',(-0.0543871400615093,0.00441137880086899,0.001));
#307=CARTESIAN_POINT('',(-0.0543871400615093,0.00441137880086899,0.001));
#308=CARTESIAN_POINT('',(-0.0584103879332543,-0.012619871199131,0.001));
#309=CARTESIAN_POINT('',(-0.0624336358049992,0.00441137880086899,0.001));
#310=CARTESIAN_POINT('',(-0.0624336358049992,0.00441137880086899,0.001));
#311=CARTESIAN_POINT('',(-0.0584103879332543,-0.012619871199131,0.001));
#312=CARTESIAN_POINT('',(-0.0584103879332542,0.00738012880086899,0.001));
#313=CARTESIAN_POINT('',(-0.0584103879332542,0.00738012880086899,-0.023));
#314=MECHANICAL_DESIGN_GEOMETRIC_PRESENTATION_REPRESENTATION('',(#183),
#315);
#315=(
GEOMETRIC_REPRESENTATION_CONTEXT(3)
GLOBAL_UNCERTAINTY_ASSIGNED_CONTEXT((#316))
GLOBAL_UNIT_ASSIGNED_CONTEXT((#319,#318,#317))
REPRESENTATION_CONTEXT('Part 1','TOP_LEVEL_ASSEMBLY_PART')
);
#316=UNCERTAINTY_MEASURE_WITH_UNIT(LENGTH_MEASURE(1.E-8),#319,
'DISTANCE_ACCURACY_VALUE','Maximum Tolerance applied to model');
#317=(
NAMED_UNIT(*)
SI_UNIT($,.STERADIAN.)
SOLID_ANGLE_UNIT()
);
#318=(
NAMED_UNIT(*)
PLANE_ANGLE_UNIT()
SI_UNIT($,.RADIAN.)
);
#319=(
LENGTH_UNIT()
NAMED_UNIT(*)
SI_UNIT($,.METRE.)
);
#320=PRODUCT_DEFINITION_SHAPE('','',#321);
#321=PRODUCT_DEFINITION('','',#323,#322);
#322=PRODUCT_DEFINITION_CONTEXT('',#329,'design');
#323=PRODUCT_DEFINITION_FORMATION_WITH_SPECIFIED_SOURCE('','',#325,
 .NOT_KNOWN.);
#324=PRODUCT_RELATED_PRODUCT_CATEGORY('','',(#325));
#325=PRODUCT('Part 1','Part 1','Part 1',(#327));
#326=PRODUCT_CATEGORY('','');
#327=PRODUCT_CONTEXT('',#329,'mechanical');
#328=APPLICATION_PROTOCOL_DEFINITION('international standard',
'ap242_managed_model_based_3d_engineering',2020,#329);
#329=APPLICATION_CONTEXT('managed model based 3d engineering');
ENDSEC;
END-ISO-10303-21;
